<?xml version="1.0" encoding="UTF-8"?>
<svg version="1.1" xmlns="http://www.w3.org/2000/svg" width="500" height="500">
<path d="M0 0 C165 0 330 0 500 0 C500 165 500 330 500 500 C335 500 170 500 0 500 C0 335 0 170 0 0 Z " fill="#BFF0C9" transform="translate(0,0)"/>
<path d="M0 0 C4.83988728 3.79915996 7.26518768 7.7758322 8.265625 13.9765625 C8.52246765 16.16143732 8.72675918 18.33636915 8.87109375 20.53125 C9.53109375 20.53125 10.19109375 20.53125 10.87109375 20.53125 C12.19051776 23.25725814 13.5017709 25.98670839 14.80859375 28.71875 C15.18177734 29.48767578 15.55496094 30.25660156 15.93945312 31.04882812 C21.62187938 42.97680396 20.83514927 55.68431555 17.05859375 68.23046875 C14.8960475 74.11439666 11.88076623 78.74743284 7.87109375 83.53125 C7.3503125 84.17320312 6.82953125 84.81515625 6.29296875 85.4765625 C3.74602862 88.55089933 1.32142824 91.43640406 -2.12890625 93.53125 C-2.78890625 93.53125 -3.44890625 93.53125 -4.12890625 93.53125 C-3.55140625 94.500625 -2.97390625 95.47 -2.37890625 96.46875 C0.40816971 102.03308828 1.54147727 108.00469947 2.85546875 114.0390625 C3.48130395 116.90195174 4.18448927 119.71225937 5.01171875 122.5234375 C8.03344776 132.96594642 8.29502555 142.69743729 7.87109375 153.53125 C8.53109375 153.53125 9.19109375 153.53125 9.87109375 153.53125 C9.99484375 154.748125 10.11859375 155.965 10.24609375 157.21875 C10.85074852 162.10292693 10.85074852 162.10292693 12.87109375 166.53125 C13.79921875 166.655 14.72734375 166.77875 15.68359375 166.90625 C19.12497906 167.58103143 19.57277052 167.84908438 21.62109375 170.46875 C28.37458065 181.23958442 26.94894051 197.79357973 24.62890625 209.76953125 C23.0798326 215.41486666 20.98181592 220.64871401 16.55859375 224.59375 C13.87109375 225.53125 13.87109375 225.53125 9.93359375 225.78125 C6.29062042 226.09863025 4.82526503 227.15812771 2.43359375 229.90625 C0.64436741 232.19762978 -0.193343 233.72456026 -1.12890625 236.53125 C-1.78890625 236.53125 -2.44890625 236.53125 -3.12890625 236.53125 C-3.12890625 237.85125 -3.12890625 239.17125 -3.12890625 240.53125 C-3.78890625 240.53125 -4.44890625 240.53125 -5.12890625 240.53125 C-5.25265625 241.52125 -5.37640625 242.51125 -5.50390625 243.53125 C-6.08085352 247.62005024 -7.07854279 251.53986887 -8.12890625 255.53125 C-8.78890625 255.53125 -9.44890625 255.53125 -10.12890625 255.53125 C-10.28746094 256.09972656 -10.44601562 256.66820312 -10.609375 257.25390625 C-12.09733201 262.17813968 -13.85551491 265.97239035 -17.00390625 270.0390625 C-18.23682947 271.57473006 -18.23682947 271.57473006 -19.19140625 273.71875 C-20.44263082 276.13778416 -22.17433942 277.63097669 -24.12890625 279.53125 C-25.0942817 280.6711566 -26.05203935 281.81753924 -27.00390625 282.96875 C-29.79127153 286.2616324 -32.77690898 288.82112455 -36.12890625 291.53125 C-37.01578125 292.43875 -37.90265625 293.34625 -38.81640625 294.28125 C-41.12890625 296.53125 -41.12890625 296.53125 -44.12890625 297.53125 C-44.45890625 298.52125 -44.78890625 299.51125 -45.12890625 300.53125 C-47.07910733 301.93641672 -49.08881899 303.26010022 -51.12890625 304.53125 C-52.13050781 305.20285156 -53.13210938 305.87445313 -54.1640625 306.56640625 C-55.16308594 307.23542969 -56.16210938 307.90445312 -57.19140625 308.59375 C-58.19300781 309.26535156 -59.19460938 309.93695313 -60.2265625 310.62890625 C-67.7059083 315.53125 -67.7059083 315.53125 -70.12890625 315.53125 C-70.12890625 316.19125 -70.12890625 316.85125 -70.12890625 317.53125 C-70.99773437 317.92957031 -71.8665625 318.32789063 -72.76171875 318.73828125 C-73.91414062 319.26808594 -75.0665625 319.79789062 -76.25390625 320.34375 C-77.39085937 320.86582031 -78.5278125 321.38789063 -79.69921875 321.92578125 C-83.09949464 323.46272309 -83.09949464 323.46272309 -86.12109375 325.23046875 C-93.22188326 328.30132967 -100.20778885 325.72416428 -107.31640625 323.78125 C-108.34797852 323.50249023 -109.37955078 323.22373047 -110.44238281 322.93652344 C-113.34103096 322.14564979 -116.23506278 321.33948409 -119.12890625 320.53125 C-120.28519531 320.221875 -121.44148437 319.9125 -122.6328125 319.59375 C-132.40400252 316.70270089 -141.24211621 311.41606681 -150.12890625 306.53125 C-150.90637207 306.11439941 -151.68383789 305.69754883 -152.48486328 305.26806641 C-163.43813706 299.33609978 -172.58334841 291.5505862 -181.12890625 282.53125 C-181.79535156 281.89703125 -182.46179688 281.2628125 -183.1484375 280.609375 C-185.36785963 278.2805139 -187.02838529 275.86995477 -188.75390625 273.15625 C-189.63949219 271.78339844 -189.63949219 271.78339844 -190.54296875 270.3828125 C-192.15262 267.48861197 -193.18521089 264.69870273 -194.12890625 261.53125 C-195.30453125 261.7375 -196.48015625 261.94375 -197.69140625 262.15625 C-200.81515128 262.16177875 -201.81477327 261.83908773 -204.078125 259.62109375 C-207.88455961 254.27887424 -210.77554926 248.63780563 -213.12890625 242.53125 C-213.48984375 241.63148438 -213.85078125 240.73171875 -214.22265625 239.8046875 C-216.33510249 234.32741617 -217.68693347 229.38738937 -218.12890625 223.53125 C-218.78890625 223.53125 -219.44890625 223.53125 -220.12890625 223.53125 C-220.21033552 221.7820286 -220.26829166 220.03170458 -220.31640625 218.28125 C-220.35121094 217.30671875 -220.38601562 216.3321875 -220.421875 215.328125 C-220.0847662 212.10985969 -219.42480545 210.78463255 -217.12890625 208.53125 C-213.94140625 208.28125 -213.94140625 208.28125 -211.12890625 208.53125 C-211.68578125 207.4175 -212.24265625 206.30375 -212.81640625 205.15625 C-215.2902236 199.64718158 -216.78205111 193.92272001 -218.28979492 188.09228516 C-219.21434989 184.57448482 -220.20261251 181.36034243 -221.6484375 178.0078125 C-223.32881524 174.06180672 -224.3209212 170.20355913 -225.25390625 166.03125 C-225.42277344 165.31066406 -225.59164062 164.59007812 -225.765625 163.84765625 C-227.2358976 157.44560312 -228.22217583 151.40496106 -227.98046875 144.80859375 C-227.94566406 143.77541016 -227.91085938 142.74222656 -227.875 141.67773438 C-227.79408555 139.53350146 -227.68979777 137.39002662 -227.5625 135.24804688 C-227.2809931 129.56325425 -227.2809931 129.56325425 -229.58862305 124.5793457 C-231.36408657 123.0713436 -233.17500714 121.79545833 -235.12890625 120.53125 C-240.86679995 114.94994599 -244.60485004 108.67210074 -248.12890625 101.53125 C-248.680625 100.41492188 -249.23234375 99.29859375 -249.80078125 98.1484375 C-253.9246503 89.52758744 -255.31934524 82.62645007 -255.37890625 73.15625 C-255.39953125 72.34414062 -255.42015625 71.53203125 -255.44140625 70.6953125 C-255.49750068 61.94458189 -253.20631815 56.19030788 -247.37890625 49.59375 C-244.25312579 45.99935901 -241.19599662 42.39101203 -238.31640625 38.59375 C-235.78884553 35.31204528 -233.13795573 32.38984701 -230.12890625 29.53125 C-229.45021484 28.75201172 -229.45021484 28.75201172 -228.7578125 27.95703125 C-222.24347163 20.72789987 -213.12591891 15.99979529 -204.12890625 12.53125 C-203.54367188 12.16773437 -202.9584375 11.80421875 -202.35546875 11.4296875 C-195.37474315 8.61290348 -183.74022813 9.39199958 -176.81640625 12.21875 C-175.25106094 12.98378878 -173.68876124 13.75507818 -172.12890625 14.53125 C-169.88561999 15.40289639 -167.63515299 16.25622309 -165.37890625 17.09375 C-152.97073604 21.75445433 -146.93415648 28.32260257 -140.12890625 39.53125 C-139.70931641 40.62953125 -139.70931641 40.62953125 -139.28125 41.75 C-138.24880813 43.7878188 -138.24880813 43.7878188 -135.74609375 44.140625 C-134.84117187 44.18703125 -133.93625 44.2334375 -133.00390625 44.28125 C-131.63878906 44.36632812 -131.63878906 44.36632812 -130.24609375 44.453125 C-129.54742187 44.47890625 -128.84875 44.5046875 -128.12890625 44.53125 C-128.12890625 43.87125 -128.12890625 43.21125 -128.12890625 42.53125 C-125.5512755 41.02063849 -122.9676102 39.52266595 -120.37890625 38.03125 C-119.28449219 37.38736328 -119.28449219 37.38736328 -118.16796875 36.73046875 C-117.45898438 36.32441406 -116.75 35.91835937 -116.01953125 35.5 C-115.37016602 35.12294922 -114.72080078 34.74589844 -114.05175781 34.35742188 C-112.12890625 33.53125 -112.12890625 33.53125 -108.12890625 33.53125 C-108.12890625 32.87125 -108.12890625 32.21125 -108.12890625 31.53125 C-107.52046875 31.49128906 -106.91203125 31.45132813 -106.28515625 31.41015625 C-103.84391407 30.69015846 -103.84391407 30.69015846 -102.78515625 27.87109375 C-102.2128125 26.18693359 -102.2128125 26.18693359 -101.62890625 24.46875 C-99.77189068 19.24840903 -97.71893139 14.4235197 -95.12890625 9.53125 C-94.46890625 9.53125 -93.80890625 9.53125 -93.12890625 9.53125 C-93.03480469 8.96921875 -92.94070313 8.4071875 -92.84375 7.828125 C-91.95296535 4.96593169 -90.54018743 3.13354539 -88.69140625 0.78125 C-88.07394531 -0.01796875 -87.45648438 -0.8171875 -86.8203125 -1.640625 C-86.26214844 -2.24390625 -85.70398438 -2.8471875 -85.12890625 -3.46875 C-84.46890625 -3.46875 -83.80890625 -3.46875 -83.12890625 -3.46875 C-83.12890625 -4.12875 -83.12890625 -4.78875 -83.12890625 -5.46875 C-59.96440389 -25.12727362 -23.00385274 -15.87054795 0 0 Z " fill="#855E47" transform="translate(361.12890625,86.46875)"/>
<path d="M0 0 C4.83988728 3.79915996 7.26518768 7.7758322 8.265625 13.9765625 C8.52246765 16.16143732 8.72675918 18.33636915 8.87109375 20.53125 C9.53109375 20.53125 10.19109375 20.53125 10.87109375 20.53125 C12.19051776 23.25725814 13.5017709 25.98670839 14.80859375 28.71875 C15.18177734 29.48767578 15.55496094 30.25660156 15.93945312 31.04882812 C21.62187938 42.97680396 20.83514927 55.68431555 17.05859375 68.23046875 C14.8960475 74.11439666 11.88076623 78.74743284 7.87109375 83.53125 C7.3503125 84.17320312 6.82953125 84.81515625 6.29296875 85.4765625 C3.74602862 88.55089933 1.32142824 91.43640406 -2.12890625 93.53125 C-2.78890625 93.53125 -3.44890625 93.53125 -4.12890625 93.53125 C-3.55140625 94.500625 -2.97390625 95.47 -2.37890625 96.46875 C0.41299701 102.04272588 1.54633511 108.02489843 2.859375 114.0703125 C3.46676486 116.85086121 4.16173846 119.50691244 4.9765625 122.2421875 C8.78255578 135.13035247 8.70109198 148.17731803 8.87109375 161.53125 C7.88109375 161.53125 6.89109375 161.53125 5.87109375 161.53125 C5.8453125 162.29050781 5.81953125 163.04976562 5.79296875 163.83203125 C5.73625 164.82589844 5.67953125 165.81976563 5.62109375 166.84375 C5.5746875 167.82988281 5.52828125 168.81601563 5.48046875 169.83203125 C4.87109375 172.53125 4.87109375 172.53125 2.82421875 174.38671875 C2.1796875 174.76441406 1.53515625 175.14210938 0.87109375 175.53125 C-3.46178682 167.10921339 -7.48545009 158.60652192 -11.28271484 149.93066406 C-12.99896117 146.02334048 -14.76835769 142.18642899 -16.75390625 138.40625 C-18.92528597 134.15950396 -20.67822054 129.79473961 -22.37890625 125.34375 C-22.63752441 124.67778809 -22.89614258 124.01182617 -23.16259766 123.32568359 C-24.7572526 119.05022114 -25.63449061 115.06927925 -26.12890625 110.53125 C-26.78890625 110.53125 -27.44890625 110.53125 -28.12890625 110.53125 C-28.80010174 109.0749955 -29.46572432 107.61617133 -30.12890625 106.15625 C-30.68578125 104.93808594 -30.68578125 104.93808594 -31.25390625 103.6953125 C-32.12890625 101.53125 -32.12890625 101.53125 -32.12890625 99.53125 C-32.74765625 99.304375 -33.36640625 99.0775 -34.00390625 98.84375 C-36.12890625 97.53125 -36.12890625 97.53125 -37.06640625 95.03125 C-37.88173012 92.34290154 -37.88173012 92.34290154 -40.37890625 91.46875 C-41.74015625 91.0046875 -41.74015625 91.0046875 -43.12890625 90.53125 C-44.49015625 89.5721875 -44.49015625 89.5721875 -45.87890625 88.59375 C-56.76307777 81.6864873 -71.72245158 81.93513071 -84.12890625 84.53125 C-86.25697218 85.17177677 -88.34072299 85.89707741 -90.43359375 86.64453125 C-99.8307344 89.73605433 -109.6845564 91.72311094 -119.359375 93.72265625 C-121.56434575 94.19563961 -123.76529427 94.69000321 -125.95336914 95.23583984 C-134.01809949 97.21673656 -141.92745434 98.29684985 -150.19140625 99.03125 C-159.05842997 99.8818011 -167.88468154 100.81016803 -176.69140625 102.15625 C-177.90292358 102.3409082 -177.90292358 102.3409082 -179.13891602 102.52929688 C-182.51397284 103.06102164 -185.82326867 103.67113526 -189.12890625 104.53125 C-189.12890625 105.19125 -189.12890625 105.85125 -189.12890625 106.53125 C-190.78636291 107.5464422 -192.45510323 108.54324128 -194.12890625 109.53125 C-204.45840895 118.32746714 -209.57107729 127.12210158 -211.12890625 140.53125 C-211.47937353 146.46238559 -211.41735451 152.40498999 -211.37890625 158.34375 C-211.37646912 159.1588504 -211.37403198 159.97395081 -211.371521 160.81375122 C-211.70378757 183.51962809 -211.70378757 183.51962809 -207.12890625 205.53125 C-207.12890625 207.86458333 -207.12890625 210.19791667 -207.12890625 212.53125 C-206.68337995 215.14076119 -206.14402842 217.71362028 -205.56640625 220.296875 C-205.12890625 222.53125 -205.12890625 222.53125 -205.12890625 225.53125 C-206.77890625 225.86125 -208.42890625 226.19125 -210.12890625 226.53125 C-210.12890625 225.54125 -210.12890625 224.55125 -210.12890625 223.53125 C-211.24265625 223.5725 -212.35640625 223.61375 -213.50390625 223.65625 C-217.12890625 223.53125 -217.12890625 223.53125 -219.12890625 221.53125 C-219.39453125 219 -219.39453125 219 -219.37890625 216.03125 C-219.38664062 214.56171875 -219.38664062 214.56171875 -219.39453125 213.0625 C-219.12890625 210.53125 -219.12890625 210.53125 -217.12890625 208.53125 C-214.00390625 208.40625 -214.00390625 208.40625 -211.12890625 208.53125 C-211.68578125 207.4175 -212.24265625 206.30375 -212.81640625 205.15625 C-215.2902236 199.64718158 -216.78205111 193.92272001 -218.28979492 188.09228516 C-219.21434989 184.57448482 -220.20261251 181.36034243 -221.6484375 178.0078125 C-223.32881524 174.06180672 -224.3209212 170.20355913 -225.25390625 166.03125 C-225.42277344 165.31066406 -225.59164062 164.59007812 -225.765625 163.84765625 C-227.2358976 157.44560312 -228.22217583 151.40496106 -227.98046875 144.80859375 C-227.94566406 143.77541016 -227.91085938 142.74222656 -227.875 141.67773438 C-227.79408555 139.53350146 -227.68979777 137.39002662 -227.5625 135.24804688 C-227.2809931 129.56325425 -227.2809931 129.56325425 -229.58862305 124.5793457 C-231.36408657 123.0713436 -233.17500714 121.79545833 -235.12890625 120.53125 C-240.86679995 114.94994599 -244.60485004 108.67210074 -248.12890625 101.53125 C-248.680625 100.41492188 -249.23234375 99.29859375 -249.80078125 98.1484375 C-253.9246503 89.52758744 -255.31934524 82.62645007 -255.37890625 73.15625 C-255.39953125 72.34414062 -255.42015625 71.53203125 -255.44140625 70.6953125 C-255.49750068 61.94458189 -253.20631815 56.19030788 -247.37890625 49.59375 C-244.25312579 45.99935901 -241.19599662 42.39101203 -238.31640625 38.59375 C-235.78884553 35.31204528 -233.13795573 32.38984701 -230.12890625 29.53125 C-229.45021484 28.75201172 -229.45021484 28.75201172 -228.7578125 27.95703125 C-222.24347163 20.72789987 -213.12591891 15.99979529 -204.12890625 12.53125 C-203.54367188 12.16773437 -202.9584375 11.80421875 -202.35546875 11.4296875 C-195.37474315 8.61290348 -183.74022813 9.39199958 -176.81640625 12.21875 C-175.25106094 12.98378878 -173.68876124 13.75507818 -172.12890625 14.53125 C-169.88561999 15.40289639 -167.63515299 16.25622309 -165.37890625 17.09375 C-152.97073604 21.75445433 -146.93415648 28.32260257 -140.12890625 39.53125 C-139.70931641 40.62953125 -139.70931641 40.62953125 -139.28125 41.75 C-138.24880813 43.7878188 -138.24880813 43.7878188 -135.74609375 44.140625 C-134.84117187 44.18703125 -133.93625 44.2334375 -133.00390625 44.28125 C-131.63878906 44.36632812 -131.63878906 44.36632812 -130.24609375 44.453125 C-129.54742187 44.47890625 -128.84875 44.5046875 -128.12890625 44.53125 C-128.12890625 43.87125 -128.12890625 43.21125 -128.12890625 42.53125 C-125.5512755 41.02063849 -122.9676102 39.52266595 -120.37890625 38.03125 C-119.28449219 37.38736328 -119.28449219 37.38736328 -118.16796875 36.73046875 C-117.45898438 36.32441406 -116.75 35.91835937 -116.01953125 35.5 C-115.37016602 35.12294922 -114.72080078 34.74589844 -114.05175781 34.35742188 C-112.12890625 33.53125 -112.12890625 33.53125 -108.12890625 33.53125 C-108.12890625 32.87125 -108.12890625 32.21125 -108.12890625 31.53125 C-107.52046875 31.49128906 -106.91203125 31.45132813 -106.28515625 31.41015625 C-103.84391407 30.69015846 -103.84391407 30.69015846 -102.78515625 27.87109375 C-102.2128125 26.18693359 -102.2128125 26.18693359 -101.62890625 24.46875 C-99.77189068 19.24840903 -97.71893139 14.4235197 -95.12890625 9.53125 C-94.46890625 9.53125 -93.80890625 9.53125 -93.12890625 9.53125 C-93.03480469 8.96921875 -92.94070313 8.4071875 -92.84375 7.828125 C-91.95296535 4.96593169 -90.54018743 3.13354539 -88.69140625 0.78125 C-88.07394531 -0.01796875 -87.45648438 -0.8171875 -86.8203125 -1.640625 C-86.26214844 -2.24390625 -85.70398438 -2.8471875 -85.12890625 -3.46875 C-84.46890625 -3.46875 -83.80890625 -3.46875 -83.12890625 -3.46875 C-83.12890625 -4.12875 -83.12890625 -4.78875 -83.12890625 -5.46875 C-59.96440389 -25.12727362 -23.00385274 -15.87054795 0 0 Z " fill="#4D362A" transform="translate(361.12890625,86.46875)"/>
<path d="M0 0 C0.0498487 4.12593843 0.08592957 8.25175752 0.10986328 12.37792969 C0.11985248 13.77835142 0.13344854 15.17875268 0.15087891 16.57910156 C0.25659531 25.29759579 -0.23154993 32.69464979 -3 41 C-3.66 41 -4.32 41 -5 41 C-5.33 41.99 -5.66 42.98 -6 44 C-8.42336891 46.26181098 -10.30090872 46.96221128 -13.6015625 47.140625 C-18.15648793 46.91963131 -21.20348899 46.52017046 -25.0625 44 C-27.15338556 40.76249979 -27.81999686 38.3990566 -28.46875 34.65625 C-29.09816864 31.50915681 -30.06489869 28.54980973 -31.0625 25.5 C-31.71977717 23.33677744 -32.36643804 21.17028671 -33 19 C-33.25136719 18.15824219 -33.50273437 17.31648438 -33.76171875 16.44921875 C-34.50240709 13.01835034 -34.47010626 10.95192336 -32.90234375 7.77734375 C-27.50833255 1.00718391 -20.14085135 0.37268755 -12.046875 -0.625 C-7.86598175 -1.08318008 -4.07379856 -1.16394245 0 0 Z " fill="#D17B75" transform="translate(283,362)"/>
<path d="M0 0 C5.94425043 4.02076978 11.13518276 9.34115785 12.8125 16.4375 C12.874375 17.283125 12.93625 18.12875 13 19 C11.56967163 20.17544805 10.13046758 21.34010262 8.6875 22.5 C7.88699219 23.1496875 7.08648437 23.799375 6.26171875 24.46875 C4 26 4 26 1 26 C1.06960938 25.3709375 1.13921875 24.741875 1.2109375 24.09375 C1.59954202 17.95009759 0.82400573 14.32817019 -3.234375 9.625 C-8.35293584 4.91411215 -14.38640616 4.50873799 -21 4 C-21 8.62 -21 13.24 -21 18 C-22.98 18.33 -24.96 18.66 -27 19 C-28 18 -28 18 -28.125 15.0625 C-28 12 -28 12 -27 10 C-29.62744885 10.78693049 -29.62744885 10.78693049 -32 13 C-33.67112525 18.8280493 -33.31897855 24.41336984 -31 30 C-29.45043266 32.45993815 -27.78623325 34.69669922 -26 37 C-31.81615706 38.93871902 -37.44544135 40.27599541 -43.4375 38.125 C-45 37 -45 37 -46 35 C-46.88954213 24.34260105 -45.66705003 14.13344586 -38.66015625 5.71484375 C-28.19976415 -5.09012598 -13.18939354 -7.28234891 0 0 Z " fill="#E8E7E7" transform="translate(317,255)"/>
<path d="M0 0 C0.33 0 0.66 0 1 0 C1.12375 1.216875 1.2475 2.43375 1.375 3.6875 C1.97965477 8.57167693 1.97965477 8.57167693 4 13 C5.3921875 13.185625 5.3921875 13.185625 6.8125 13.375 C10.25388531 14.04978143 10.70167677 14.31783438 12.75 16.9375 C19.73158697 28.07212102 17.75772002 44.36375797 15.6328125 56.7421875 C15 59 15 59 13 61 C13 60.34 13 59.68 13 59 C12.34 59 11.68 59 11 59 C10.79375 59.721875 10.5875 60.44375 10.375 61.1875 C8.54751837 64.9255306 6.29561194 66.49246917 3 69 C1.44049449 67.44049449 1.71803302 65.91122869 1.625 63.75 C1.65435944 60.02135078 1.70427551 59.32769471 4.3125 56.4375 C5.199375 55.633125 6.08625 54.82875 7 54 C9.28495307 49.57810701 10.38441115 44.92471078 11 40 C10.01 40.495 10.01 40.495 9 41 C8.30906104 43.57951874 8.30906104 43.57951874 7.875 46.5625 C7.70742188 47.57441406 7.53984375 48.58632813 7.3671875 49.62890625 C7.24601562 50.41136719 7.12484375 51.19382812 7 52 C5.02 52.495 5.02 52.495 3 53 C2.77872902 50.70954632 2.5733496 48.41755236 2.375 46.125 C2.25898438 44.84882813 2.14296875 43.57265625 2.0234375 42.2578125 C2.01183594 40.64519531 2.01183594 40.64519531 2 39 C4 37 4 37 6.625 36.875 C7.40875 36.91625 8.1925 36.9575 9 37 C9 35.68 9 34.36 9 33 C6.53673288 31.3553326 6.53673288 31.3553326 4 30 C4 29.34 4 28.68 4 28 C2.02 28.33 0.04 28.66 -2 29 C-4.41763151 21.74710546 -4.51527659 15.57638295 -3 8 C-2.01 8 -1.02 8 0 8 C0 5.36 0 2.72 0 0 Z " fill="#8A674F" transform="translate(370,240)"/>
<path d="M0 0 C0.99 0.495 0.99 0.495 2 1 C2.10985087 2.37313591 2.18641991 3.74894513 2.25 5.125 C2.29640625 5.89070313 2.3428125 6.65640625 2.390625 7.4453125 C1.4911821 13.32766909 -3.34657876 17.66341393 -7.25 21.875 C-8.14203125 22.84179688 -9.0340625 23.80859375 -9.953125 24.8046875 C-10.62859375 25.52914063 -11.3040625 26.25359375 -12 27 C-13.2380014 23.42355152 -12.74926071 20.66305234 -12 17 C-12.76699219 17.10957031 -13.53398437 17.21914063 -14.32421875 17.33203125 C-15.43410156 17.49058594 -16.54398437 17.64914062 -17.6875 17.8125 C-19.57855469 18.08320313 -19.57855469 18.08320313 -21.5078125 18.359375 C-24.81456597 18.83198337 -28.12200591 19.2995584 -31.4296875 19.765625 C-32.36079346 19.89735107 -33.29189941 20.02907715 -34.2512207 20.16479492 C-36.10115927 20.42650139 -37.95125342 20.68711085 -39.80151367 20.9465332 C-43.89388344 21.5267803 -47.95907914 22.1178863 -52 23 C-52 25.97 -52 28.94 -52 32 C-55.5875213 30.66749209 -58.8364623 29.169283 -62 27 C-62 26.34 -62 25.68 -62 25 C-62.5775 24.731875 -63.155 24.46375 -63.75 24.1875 C-69.26235778 21.27820006 -70.83126293 18.74715323 -73 13 C-71.77216797 13.48339844 -71.77216797 13.48339844 -70.51953125 13.9765625 C-66.51626126 15.14066543 -62.82055563 15.3833434 -58.6875 15.375 C-57.47852051 15.37367065 -57.47852051 15.37367065 -56.24511719 15.37231445 C-48.99172772 15.23776476 -41.90976371 14.31486466 -34.75 13.1875 C-33.69127686 13.02233887 -32.63255371 12.85717773 -31.54174805 12.68701172 C-25.92048934 11.73270396 -21.13164771 10.4794101 -16 8 C-14.67140506 7.48754195 -13.33893916 6.98478832 -12 6.5 C-4.98793443 4.45697722 -4.98793443 4.45697722 0 0 Z " fill="#3C1B18" transform="translate(298,341)"/>
<path d="M0 0 C1.2065625 0.0309375 1.2065625 0.0309375 2.4375 0.0625 C2.15562064 1.85573253 1.8616719 3.64707126 1.5625 5.4375 C1.40007812 6.43523437 1.23765625 7.43296875 1.0703125 8.4609375 C0.4375 11.0625 0.4375 11.0625 -1.5625 13.0625 C-2.0575 8.6075 -2.0575 8.6075 -2.5625 4.0625 C-3.036875 4.475 -3.51125 4.8875 -4 5.3125 C-9.80993717 9.28026197 -16.3775101 11.4547914 -23.10546875 13.3515625 C-24.85176303 13.85684956 -26.57916066 14.42954654 -28.2890625 15.046875 C-39.05240091 18.38633561 -50.77968874 19.33763925 -62 19.375 C-62.78592529 19.38031738 -63.57185059 19.38563477 -64.3815918 19.39111328 C-68.53210533 19.33953162 -71.8313479 18.92436715 -75.5625 17.0625 C-74.9025 18.7125 -74.2425 20.3625 -73.5625 22.0625 C-74.8825 21.7325 -76.2025 21.4025 -77.5625 21.0625 C-77.5625 20.0725 -77.5625 19.0825 -77.5625 18.0625 C-78.8825 17.7325 -80.2025 17.4025 -81.5625 17.0625 C-81.5625 13.0625 -81.5625 13.0625 -80.5625 11.0625 C-78.5825 11.5575 -78.5825 11.5575 -76.5625 12.0625 C-76.5625 12.7225 -76.5625 13.3825 -76.5625 14.0625 C-48.60747677 10.83942446 -48.60747677 10.83942446 -21.16333008 4.83740234 C-15.94266056 3.39619101 -10.75721779 2.24630274 -5.3984375 1.421875 C-2.79279612 0.91183456 -2.90665491 0.07089402 0 0 Z " fill="#673D2C" transform="translate(301.5625,337.9375)"/>
<path d="M0 0 C1 2 1 2 1 4 C2.32 4.33 3.64 4.66 5 5 C4.01 5.33 3.02 5.66 2 6 C1.67 6.99 1.34 7.98 1 9 C1.99 9.33 2.98 9.66 4 10 C3.34 10 2.68 10 2 10 C2 10.66 2 11.32 2 12 C1.35417969 12.07476562 0.70835937 12.14953125 0.04296875 12.2265625 C-6.75023048 13.17445076 -13.16108124 14.81888024 -19.6875 16.875 C-20.47036377 17.11943848 -21.25322754 17.36387695 -22.05981445 17.61572266 C-26.89895733 19.17850534 -31.47829371 21.03840938 -36.06567383 23.23486328 C-38 24 -38 24 -41 24 C-41 24.66 -41 25.32 -41 26 C-42.32 26.33 -43.64 26.66 -45 27 C-43.89191046 22.19827866 -42.95313492 19.08838665 -39 16 C-38.34 16 -37.68 16 -37 16 C-37 15.34 -37 14.68 -37 14 C-34.9219935 12.82286337 -32.83848217 11.65828026 -30.75 10.5 C-30.16347656 10.16613281 -29.57695312 9.83226562 -28.97265625 9.48828125 C-25.61417893 7.63923194 -23.93354216 7 -20 7 C-20 6.34 -20 5.68 -20 5 C-6.3667426 -0.74031891 -6.3667426 -0.74031891 0 0 Z " fill="#4D372B" transform="translate(215,257)"/>
<path d="M0 0 C5.53846154 3.07692308 5.53846154 3.07692308 7 6 C7.50872093 12.10465114 7.06705978 15.11952826 3 20 C-0.14999096 22.09999398 -2.0985333 22.54587408 -5.859375 22.44140625 C-9.8751425 21.6133374 -12.65529655 19.30552994 -15 16 C-15.4375 12.125 -15.4375 12.125 -15 9 C-11.535 8.505 -11.535 8.505 -8 8 C-8.33 5.69 -8.66 3.38 -9 1 C-5.89046621 -0.5547669 -3.43733239 -0.28644437 0 0 Z " fill="#060402" transform="translate(304,265)"/>
<path d="M0 0 C0.66 3.3 1.32 6.6 2 10 C8.764418 12.254806 14.69608882 13.29566648 21.375 10.3125 C24.18460409 8.77548129 24.91315009 8.15922484 26.5 5.25 C26.7475 4.13625 26.7475 4.13625 27 3 C28.485 3.495 28.485 3.495 30 4 C30.125 11.625 30.125 11.625 29 15 C28.34 15 27.68 15 27 15 C26.690625 15.8971875 26.690625 15.8971875 26.375 16.8125 C24.41431612 19.93176982 22.40147622 20.62692703 19 22 C16.2811224 22.20597558 13.82358378 22.28948136 11.125 22.1875 C10.43664062 22.17396484 9.74828125 22.16042969 9.0390625 22.14648438 C7.35902999 22.1114837 5.6794065 22.05768954 4 22 C4 21.34 4 20.68 4 20 C3.34 20 2.68 20 2 20 C-1.52047378 16.91958545 -3.73570432 14.20360812 -4.30078125 9.4921875 C-4.30464844 8.62851562 -4.30851563 7.76484375 -4.3125 6.875 C-4.32925781 6.00617188 -4.34601563 5.13734375 -4.36328125 4.2421875 C-4.24339844 3.50226563 -4.12351563 2.76234375 -4 2 C-1 0 -1 0 0 0 Z " fill="#69422A" transform="translate(238,314)"/>
<path d="M0 0 C0.66 0.33 1.32 0.66 2 1 C2.50570446 7.3213058 2.19969333 10.93883111 -2 16 C-2.57878906 16.70769531 -3.15757812 17.41539062 -3.75390625 18.14453125 C-7.20314385 22.2562529 -7.20314385 22.2562529 -9 24 C-9.66 24 -10.32 24 -11 24 C-11 21.36 -11 18.72 -11 16 C-15.43738718 15.92956528 -19.72529421 15.90499217 -24.125 16.5 C-30.71183877 17.33362844 -37.37397165 17.07856951 -44 17 C-44 16.34 -44 15.68 -44 15 C-43.40050537 14.89453857 -42.80101074 14.78907715 -42.18334961 14.68041992 C-39.4331028 14.19149305 -36.68537061 13.6896026 -33.9375 13.1875 C-32.99455078 13.02185547 -32.05160156 12.85621094 -31.08007812 12.68554688 C-25.64306773 11.68149966 -20.9919715 10.37198136 -16 8 C-14.67140506 7.48754195 -13.33893916 6.98478832 -12 6.5 C-4.98793443 4.45697722 -4.98793443 4.45697722 0 0 Z " fill="#090303" transform="translate(298,341)"/>
<path d="M0 0 C1.8203125 1.54296875 1.8203125 1.54296875 3 3 C3 3.66 3 4.32 3 5 C3.66 5 4.32 5 5 5 C5 5.66 5 6.32 5 7 C5.66 7 6.32 7 7 7 C9.5393228 10.41831915 10.3636198 12.75776898 10 17 C9.34 17 8.68 17 8 17 C6.6559907 15.00715862 5.32458708 13.00580329 4 11 C-1.97864256 4.56146186 -7.71428985 -0.31293567 -16.64453125 -1.2890625 C-25.44473833 -1.5598381 -32.31491717 0.12523024 -39 6 C-39.66 6 -40.32 6 -41 6 C-41.37125 6.804375 -41.37125 6.804375 -41.75 7.625 C-43 10 -43 10 -44.9375 12.5625 C-47.47789464 16.23615619 -48.28996018 20.30735794 -49.2890625 24.609375 C-50 27 -50 27 -52 29 C-52.75255979 20.90998228 -50.5287056 12.85228469 -46.08203125 6.078125 C-34.53509073 -7.7373295 -15.21088806 -9.09068226 0 0 Z " fill="#2F221A" transform="translate(321,253)"/>
<path d="M0 0 C2.9375 2.0625 2.9375 2.0625 5 4 C5.66 4.33 6.32 4.66 7 5 C7 5.99 7 6.98 7 8 C3.53058454 7.54177532 0.32604951 7.10868317 -3 6 C-15.70941586 4.92917905 -27.36441546 6.80889455 -38 14 C-38.99 14 -39.98 14 -41 14 C-40.24732614 9.47405326 -38.00184979 7.6034647 -34.5703125 4.75 C-24.11157556 -2.37084217 -11.94188006 -4.27170018 0 0 Z " fill="#594439" transform="translate(310,217)"/>
<path d="M0 0 C0.33 0 0.66 0 1 0 C1.12375 1.216875 1.2475 2.43375 1.375 3.6875 C1.80571563 7.06143907 2.35105812 9.97693988 4 13 C4.99 13.33 5.98 13.66 7 14 C5.02 14.99 5.02 14.99 3 16 C2.58168596 19.28999282 2.58168596 19.28999282 3 23 C5.23476263 25.6692998 7.61681089 27.68930613 10.3125 29.875 C12 32 12 32 12.4375 35.625 C12.293125 36.73875 12.14875 37.8525 12 39 C11.01 39.66 10.02 40.32 9 41 C8.19907746 43.64691668 8.19907746 43.64691668 7.8125 46.625 C7.65394531 47.62789063 7.49539063 48.63078125 7.33203125 49.6640625 C7.22246094 50.43492187 7.11289062 51.20578125 7 52 C5.02 52.495 5.02 52.495 3 53 C2.77872902 50.70954632 2.5733496 48.41755236 2.375 46.125 C2.25898438 44.84882813 2.14296875 43.57265625 2.0234375 42.2578125 C2.01183594 40.64519531 2.01183594 40.64519531 2 39 C4 37 4 37 6.625 36.875 C7.40875 36.91625 8.1925 36.9575 9 37 C9 35.68 9 34.36 9 33 C6.53673288 31.3553326 6.53673288 31.3553326 4 30 C4 29.34 4 28.68 4 28 C2.02 28.33 0.04 28.66 -2 29 C-4.41763151 21.74710546 -4.51527659 15.57638295 -3 8 C-2.01 8 -1.02 8 0 8 C0 5.36 0 2.72 0 0 Z " fill="#98857B" transform="translate(370,240)"/>
<path d="M0 0 C1.32 0.33 2.64 0.66 4 1 C4 1.66 4 2.32 4 3 C4.66 3.33 5.32 3.66 6 4 C4.35 4.33 2.7 4.66 1 5 C0.7834375 6.7634375 0.7834375 6.7634375 0.5625 8.5625 C0.42134766 9.65884766 0.42134766 9.65884766 0.27734375 10.77734375 C0.03449415 12.72356095 -0.17318286 14.67410093 -0.375 16.625 C-1.03662872 20.19779511 -2.2298279 22.84447583 -4 26 C-4.66 26 -5.32 26 -6 26 C-6.268125 26.53625 -6.53625 27.0725 -6.8125 27.625 C-7.204375 28.40875 -7.59625 29.1925 -8 30 C-8.5878125 31.3921875 -8.5878125 31.3921875 -9.1875 32.8125 C-11.50329758 36.88510954 -14.46876946 39.9396002 -18 43 C-18.33 43 -18.66 43 -19 43 C-20.07049089 31.70037394 -20.07049089 31.70037394 -17.65234375 27.859375 C-15.875 26.1875 -15.875 26.1875 -13.953125 24.625 C-10.24618023 21.54082195 -7.1574461 17.3148922 -5 13 C-4.34 13 -3.68 13 -3 13 C-2.86722656 12.31292969 -2.73445313 11.62585938 -2.59765625 10.91796875 C-2.42105469 10.01691406 -2.24445313 9.11585938 -2.0625 8.1875 C-1.88847656 7.29417969 -1.71445312 6.40085937 -1.53515625 5.48046875 C-1 3 -1 3 0 0 Z " fill="#7D5243" transform="translate(304,338)"/>
<path d="M0 0 C6.04840703 -0.37031063 10.6019202 -0.11427681 16 3 C20.70288598 7.19170272 21.62078225 10.42804005 22.15234375 16.6328125 C21.98536394 19.22742188 21.31439394 20.78036198 20 23 C19.67 21.68 19.34 20.36 19 19 C16.525 20.485 16.525 20.485 14 22 C14.02320313 21.31292969 14.04640625 20.62585938 14.0703125 19.91796875 C14.08835937 19.01691406 14.10640625 18.11585938 14.125 17.1875 C14.15980469 15.84751953 14.15980469 15.84751953 14.1953125 14.48046875 C14.18285827 11.74597286 14.18285827 11.74597286 12 9 C9.02174857 7.0781369 6.75751672 6.77183774 3.25 6.875 C2.05117188 6.90207031 2.05117188 6.90207031 0.828125 6.9296875 C-0.07679688 6.96449219 -0.07679688 6.96449219 -1 7 C-0.67 4.69 -0.34 2.38 0 0 Z " fill="#60482D" transform="translate(296,259)"/>
<path d="M0 0 C0 0.66 0 1.32 0 2 C2.475 2.495 2.475 2.495 5 3 C5 4.32 5 5.64 5 7 C2.49666911 6.58277819 0.38995272 6.21581412 -1.84350586 4.97973633 C-6.10046102 3.04572059 -10.96329298 3.67353762 -15.5625 3.6875 C-16.59697266 3.67138672 -17.63144531 3.65527344 -18.69726562 3.63867188 C-25.04643054 3.63469619 -30.4961339 4.39570737 -36.54272461 6.35473633 C-39.12800586 7.03361346 -41.33923294 7.11266124 -44 7 C-44 7.66 -44 8.32 -44 9 C-45.65 9 -47.3 9 -49 9 C-46.95818437 4.91636875 -42.46465203 3.51578385 -38.37109375 2.07421875 C-25.88389891 -1.22340091 -12.8027447 -0.27012932 0 0 Z " fill="#4F3221" transform="translate(221,292)"/>
<path d="M0 0 C3.875 1.875 3.875 1.875 5 3 C6.41327947 3.15620555 7.8335459 3.25056173 9.25390625 3.31640625 C10.10791016 3.35830078 10.96191406 3.40019531 11.84179688 3.44335938 C12.73962891 3.48267578 13.63746094 3.52199219 14.5625 3.5625 C15.46419922 3.60568359 16.36589844 3.64886719 17.29492188 3.69335938 C19.52978485 3.79978142 21.76476308 3.90179988 24 4 C23.5155542 4.44384033 23.0311084 4.88768066 22.53198242 5.3449707 C20.46410998 7.57893203 20.50724362 9.18844827 20.3125 12.1875 C20.24675781 13.08855469 20.18101562 13.98960937 20.11328125 14.91796875 C20.07589844 15.60503906 20.03851563 16.29210937 20 17 C16.26512223 16.5020163 14.18762365 16.12508244 11 14 C11 13.34 11 12.68 11 12 C10.4225 11.731875 9.845 11.46375 9.25 11.1875 C3.73764222 8.27820006 2.16873707 5.74715323 0 0 Z " fill="#080302" transform="translate(225,354)"/>
<path d="M0 0 C1.15242188 0.00902344 2.30484375 0.01804687 3.4921875 0.02734375 C4.36101562 0.03894531 5.22984375 0.05054688 6.125 0.0625 C6.125 0.3925 6.125 0.7225 6.125 1.0625 C4.3615625 1.0934375 4.3615625 1.0934375 2.5625 1.125 C-1.95240796 1.73883364 -4.68675685 3.40620186 -7.71484375 6.79296875 C-10.97857967 13.17758346 -6.74001944 21.59838354 -4.75 27.9375 C-4.39679688 28.96617187 -4.04359375 29.99484375 -3.6796875 31.0546875 C-2.84158041 34.18741789 -2.73049517 36.83522543 -2.875 40.0625 C-3.535 40.0625 -4.195 40.0625 -4.875 40.0625 C-6.87285435 35.9419254 -7.05335515 32.61055635 -6.875 28.0625 C-7.535 28.0625 -8.195 28.0625 -8.875 28.0625 C-12.16931603 18.92543479 -13.03267097 10.75050532 -12.875 1.0625 C-8.52167264 0.22226812 -4.43057481 -0.04520995 0 0 Z " fill="#B7605A" transform="translate(258.875,362.9375)"/>
<path d="M0 0 C0.99 0 1.98 0 3 0 C2.93039062 1.09699219 2.86078125 2.19398438 2.7890625 3.32421875 C2.73276448 4.77858438 2.6781665 6.23301652 2.625 7.6875 C2.57472656 8.40873047 2.52445312 9.12996094 2.47265625 9.87304688 C2.34713828 14.0368069 2.34713828 14.0368069 4.26123047 17.60668945 C7.31780909 20.23745961 9.98020201 21.64531194 14 22 C8.04 25.97333333 8.04 25.97333333 4.5625 26.0625 C0.62303572 24.42906359 -1.16935814 21.7885098 -3 18 C-4.56431568 12.26753996 -4.1295577 7.49201722 -2 2 C-1.34 1.34 -0.68 0.68 0 0 Z " fill="#5F4723" transform="translate(287,265)"/>
<path d="M0 0 C0.33 0 0.66 0 1 0 C1.0498443 4.6773121 1.08592757 9.35446584 1.10986328 14.03198242 C1.11985321 15.61957496 1.1334498 17.20714943 1.15087891 18.79467773 C1.3681494 39.10946884 1.3681494 39.10946884 -2.75 45.875 C-6.33872275 49.26434926 -9.37356351 50.8465626 -14.3125 51.3125 C-18.66818925 50.94337379 -22.77003655 50.07427643 -27 49 C-26.01 48.34 -25.02 47.68 -24 47 C-24.99 45.68 -25.98 44.36 -27 43 C-26.67 42.34 -26.34 41.68 -26 41 C-25.80019531 41.64066406 -25.60039062 42.28132813 -25.39453125 42.94140625 C-24.12621104 45.30684046 -24.12621104 45.30684046 -21.13671875 45.71484375 C-19.99847656 45.78832031 -18.86023438 45.86179687 -17.6875 45.9375 C-16.55699219 46.02902344 -15.42648437 46.12054688 -14.26171875 46.21484375 C-10.62490798 45.97529334 -8.87827519 45.18623089 -6 43 C-5.67 42.34 -5.34 41.68 -5 41 C-4.34 41 -3.68 41 -3 41 C-1.01110928 32.12244255 -0.58339054 23.38291539 -0.375 14.3125 C-0.33670856 12.91729633 -0.2976509 11.52211348 -0.2578125 10.12695312 C-0.16437237 6.75142831 -0.07860584 3.3758973 0 0 Z " fill="#B5605A" transform="translate(283,362)"/>
<path d="M0 0 C1.17175781 -0.00386719 1.17175781 -0.00386719 2.3671875 -0.0078125 C3.57761719 0.00378906 3.57761719 0.00378906 4.8125 0.015625 C5.61945313 0.00789063 6.42640625 0.00015625 7.2578125 -0.0078125 C8.03898437 -0.00523438 8.82015625 -0.00265625 9.625 0 C10.33269531 0.00225586 11.04039062 0.00451172 11.76953125 0.00683594 C14.1223713 0.30487734 15.76023951 1.10459898 17.8125 2.265625 C17.4825 3.255625 17.1525 4.245625 16.8125 5.265625 C15.65234375 5.44738281 15.65234375 5.44738281 14.46875 5.6328125 C7.33460999 6.77783836 7.33460999 6.77783836 0.3125 8.453125 C-3.02870362 9.22876155 -4.08558515 9.22476972 -7.1875 8.265625 C-6.1875 7.265625 -6.1875 7.265625 -3.625 7.203125 C-2.4184375 7.2340625 -2.4184375 7.2340625 -1.1875 7.265625 C-1.1875 6.605625 -1.1875 5.945625 -1.1875 5.265625 C-4.8175 5.595625 -8.4475 5.925625 -12.1875 6.265625 C-12.5175 5.605625 -12.8475 4.945625 -13.1875 4.265625 C-12.445 3.976875 -11.7025 3.688125 -10.9375 3.390625 C-8.28458896 2.36715141 -8.28458896 2.36715141 -6.27734375 1.21191406 C-3.99943075 0.18046654 -2.4855052 0.00792283 0 0 Z " fill="#513B2E" transform="translate(165.1875,96.734375)"/>
<path d="M0 0 C0.57105469 0.34933594 1.14210937 0.69867188 1.73046875 1.05859375 C8.78349797 5.01681206 14.97303018 5.86160397 23 6 C23 5.34 23 4.68 23 4 C25.2727675 2.50475822 27.5679943 1.21600285 30 0 C29.73645519 4.48026181 27.95031906 6.72708288 24.84521484 9.72119141 C21.53955567 12.01214705 18.27355906 11.79420829 14.375 11.625 C13.62476563 11.63144531 12.87453125 11.63789063 12.1015625 11.64453125 C8.49267476 11.57414514 6.38200678 11.28975746 3.4765625 9.0859375 C2 7 2 7 2 5 C1.34 5 0.68 5 0 5 C0 3.35 0 1.7 0 0 Z " fill="#522D14" transform="translate(236,322)"/>
<path d="M0 0 C3.0625 0.375 3.0625 0.375 4.8125 1.8125 C6.61800173 5.51377854 7.32975393 9.34058632 8.0625 13.375 C5.0625 15.375 5.0625 15.375 2.6875 15.3125 C-0.93852515 14.01749102 -2.60985411 12.43419174 -4.9375 9.375 C-5.375 5.6875 -5.375 5.6875 -4.9375 2.375 C-2.9375 0.375 -2.9375 0.375 0 0 Z " fill="#876048" transform="translate(376.9375,253.625)"/>
<path d="M0 0 C0.66 0 1.32 0 2 0 C2.58790756 5.7320987 0.79930739 10.10121206 -2 15 C-2.7425 15.66 -3.485 16.32 -4.25 17 C-6.78963964 19.90244531 -6.30925871 22.43784284 -6.140625 26.171875 C-6.09421875 26.77515625 -6.0478125 27.3784375 -6 28 C-1.04437087 24.26978687 -1.04437087 24.26978687 2 19 C2.66 19 3.32 19 4 19 C3.75307684 23.19769372 3.3525648 25.52655584 0.8125 28.9375 C-2 31 -2 31 -5.1875 31.4375 C-8 31 -8 31 -10 29 C-10.01171875 26.171875 -10.01171875 26.171875 -9.6875 22.75 C-9.53861328 21.07164062 -9.53861328 21.07164062 -9.38671875 19.359375 C-9.02477567 16.21522297 -8.55234172 13.11577383 -8 10 C-7.67 10.99 -7.34 11.98 -7 13 C-5.68 12.67 -4.36 12.34 -3 12 C-2.80083984 10.82630859 -2.80083984 10.82630859 -2.59765625 9.62890625 C-2.42105469 8.61699219 -2.24445313 7.60507812 -2.0625 6.5625 C-1.88847656 5.55316406 -1.71445312 4.54382813 -1.53515625 3.50390625 C-1 1 -1 1 0 0 Z " fill="#755239" transform="translate(379,280)"/>
<path d="M0 0 C1.98 0.495 1.98 0.495 4 1 C4 1.66 4 2.32 4 3 C4.77859375 2.83757812 5.5571875 2.67515625 6.359375 2.5078125 C11.01164653 1.85889051 15.55943204 1.85472377 20.25 1.875 C21.16007812 1.87113281 22.07015625 1.86726563 23.0078125 1.86328125 C24.31105469 1.86521484 24.31105469 1.86521484 25.640625 1.8671875 C26.42985352 1.86831543 27.21908203 1.86944336 28.03222656 1.87060547 C30 2 30 2 32 3 C32 3.66 32 4.32 32 5 C26.36473035 6.20484722 20.85463885 6.1129643 15.125 6.0625 C14.15046875 6.05798828 13.1759375 6.05347656 12.171875 6.04882812 C9.78118566 6.03710906 7.3906256 6.02070219 5 6 C5.66 7.65 6.32 9.3 7 11 C5.68 10.67 4.36 10.34 3 10 C3 9.01 3 8.02 3 7 C1.68 6.67 0.36 6.34 -1 6 C-1 2 -1 2 0 0 Z " fill="#532F1E" transform="translate(221,349)"/>
<path d="M0 0 C-0.99 0.495 -0.99 0.495 -2 1 C0.475 2.98 0.475 2.98 3 5 C2.67 5.66 2.34 6.32 2 7 C0.700625 6.979375 -0.59875 6.95875 -1.9375 6.9375 C-5.0528728 6.93266996 -8.03926856 7.08269156 -11.125 7.5 C-17.71183877 8.33362844 -24.37397165 8.07856951 -31 8 C-31 7.34 -31 6.68 -31 6 C-30.40050537 5.89453857 -29.80101074 5.78907715 -29.18334961 5.68041992 C-26.4331028 5.19149305 -23.68537061 4.6896026 -20.9375 4.1875 C-19.52307617 3.9390332 -19.52307617 3.9390332 -18.08007812 3.68554688 C-13.84063224 2.90265269 -9.93057697 2.11587214 -6.00390625 0.30078125 C-3 -1 -3 -1 0 0 Z " fill="#1C0C0A" transform="translate(285,350)"/>
<path d="M0 0 C-0.33 11.22 -0.66 22.44 -1 34 C-1.33 34 -1.66 34 -2 34 C-2 24.1 -2 14.2 -2 4 C-4.475 3.505 -4.475 3.505 -7 3 C-7.33 3.66 -7.66 4.32 -8 5 C-8.99 4.67 -9.98 4.34 -11 4 C-13.0019859 4.32119088 -15.00146897 4.65796952 -17 5 C-20.62153127 5.26609818 -24.24701895 5.41256311 -27.875 5.5625 C-28.84953125 5.60568359 -29.8240625 5.64886719 -30.828125 5.69335938 C-33.21862802 5.79882274 -35.60922444 5.90094175 -38 6 C-34.98909584 3.99273056 -33.72107067 3.63360231 -30.25390625 3.18359375 C-29.33416016 3.05919922 -28.41441406 2.93480469 -27.46679688 2.80664062 C-26.50837891 2.68482422 -25.54996094 2.56300781 -24.5625 2.4375 C-22.66772801 2.18801956 -20.77318621 1.93678302 -18.87890625 1.68359375 C-18.0391626 1.57587646 -17.19941895 1.46815918 -16.33422852 1.35717773 C-10.24036135 0.42470962 -6.85979504 0 0 0 Z " fill="#964B46" transform="translate(286,358)"/>
<path d="M0 0 C2.03833424 1.2739589 4.03852126 2.61061923 6 4 C6 4.66 6 5.32 6 6 C7.0828125 6.4021875 7.0828125 6.4021875 8.1875 6.8125 C15.43661972 9.87323944 15.43661972 9.87323944 17 13 C17.04022391 15.3329866 17.04320247 17.66706666 17 20 C12.25 18.125 12.25 18.125 10 17 C10 16.34 10 15.68 10 15 C9.21625 14.773125 8.4325 14.54625 7.625 14.3125 C4.31367306 12.65683653 4.164283 11.40968594 3 8 C2.46375 7.505 1.9275 7.01 1.375 6.5 C0 5 0 5 -0.1875 2.3125 C-0.125625 1.549375 -0.06375 0.78625 0 0 Z " fill="#794D3F" transform="translate(230,362)"/>
<path d="M0 0 C2.12508244 3.18762365 2.5020163 5.26512223 3 9 C3.5775 8.7525 4.155 8.505 4.75 8.25 C5.86375 8.12625 5.86375 8.12625 7 8 C9 9.8125 9 9.8125 11 12 C13.13309192 13.23512079 13.13309192 13.23512079 15 14 C15 15.65 15 17.3 15 19 C11.66666667 19 8.33333333 19 5 19 C5 18.01 5 17.02 5 16 C4.34 16 3.68 16 3 16 C-1.1479151 11.37347931 -0.27510986 5.81806416 0 0 Z " fill="#794E39" transform="translate(365,259)"/>
<path d="M0 0 C0 4.62 0 9.24 0 14 C-1.98 14.33 -3.96 14.66 -6 15 C-7 14 -7 14 -7.125 11.0625 C-7 8 -7 8 -6 6 C-8.5753047 6.80416982 -8.5753047 6.80416982 -11 9 C-12.05246447 12.28432381 -12.57050185 15.58324609 -13 19 C-13.33 19 -13.66 19 -14 19 C-14.49230564 14.17540473 -14.64981363 10.2650574 -11.875 6.125 C-8.67607847 2.20813869 -5.14183364 0 0 0 Z " fill="#6D635A" transform="translate(296,259)"/>
<path d="M0 0 C1 2 1 2 1 4 C2.32 4.33 3.64 4.66 5 5 C4.01 5.33 3.02 5.66 2 6 C1.67 6.99 1.34 7.98 1 9 C1.99 9.33 2.98 9.66 4 10 C3.34 10 2.68 10 2 10 C2 10.66 2 11.32 2 12 C-2.95 12.66 -7.9 13.32 -13 14 C-12 10 -12 10 -9.1875 7.875 C-6.81739189 6.48081876 -4.4940496 5.15109981 -2 4 C-2 3.34 -2 2.68 -2 2 C-5.3 2.33 -8.6 2.66 -12 3 C-8.40198016 -0.59801984 -4.84291279 -0.09137571 0 0 Z " fill="#603C25" transform="translate(215,257)"/>
<path d="M0 0 C0.66 0.66 1.32 1.32 2 2 C1.01 2.99 0.02 3.98 -1 5 C-0.67 5.99 -0.34 6.98 0 8 C-3.65461802 10.35270165 -7.32232459 12.68350997 -11 15 C-11.72058594 15.45890625 -12.44117188 15.9178125 -13.18359375 16.390625 C-15 17.5 -15 17.5 -18 19 C-18.99 18.67 -19.98 18.34 -21 18 C-13.61043833 10.09220932 -13.61043833 10.09220932 -9.375 7.875 C-5.44387477 5.69104154 -3.05107499 3.27432438 0 0 Z " fill="#57331A" transform="translate(309,384)"/>
<path d="M0 0 C4.80172134 1.10808954 7.91161335 2.04686508 11 6 C11 6.66 11 7.32 11 8 C11.66 8 12.32 8 13 8 C13 8.66 13 9.32 13 10 C13.66 10 14.32 10 15 10 C17.5393228 13.41831915 18.3636198 15.75776898 18 20 C17.34 20 16.68 20 16 20 C14.6559907 18.00715862 13.32458708 16.00580329 12 14 C6.46935226 8.04391782 1.64298496 4.59084236 -6 2 C-2.25 0.875 -2.25 0.875 0 2 C0 1.34 0 0.68 0 0 Z " fill="#382D26" transform="translate(313,250)"/>
<path d="M0 0 C-3.08809695 1.76462683 -4.23312136 2 -8 2 C-8 2.66 -8 3.32 -8 4 C-16.44078495 5.413106 -24.68990623 6.21060174 -33.25 6.25 C-34.07153564 6.25902344 -34.89307129 6.26804687 -35.73950195 6.27734375 C-39.66536517 6.2576714 -41.66345632 6.22436245 -45 4 C-43.83726562 3.96261719 -42.67453125 3.92523438 -41.4765625 3.88671875 C-32.21984348 3.52713044 -23.2441104 2.78189262 -14.14111328 1.01635742 C-9.34246607 0.10897482 -4.88704015 -0.12615255 0 0 Z " fill="#6F6B68" transform="translate(273,351)"/>
<path d="M0 0 C6.08755015 -0.37270715 10.7153394 -0.23550649 16 3 C17.4375 6.1875 17.4375 6.1875 18 9 C17.07767578 8.45859375 17.07767578 8.45859375 16.13671875 7.90625 C14.92435547 7.21015625 14.92435547 7.21015625 13.6875 6.5 C12.48673828 5.80390625 12.48673828 5.80390625 11.26171875 5.09375 C8.9685882 3.78232114 8.9685882 3.78232114 6 4 C7.65 4.99 9.3 5.98 11 7 C7 7 3 7 -1 7 C-0.67 4.69 -0.34 2.38 0 0 Z " fill="#442E0E" transform="translate(296,259)"/>
<path d="M0 0 C0.99 0.33 1.98 0.66 3 1 C3 1.66 3 2.32 3 3 C3.598125 3.061875 4.19625 3.12375 4.8125 3.1875 C7.88791343 4.32979642 8.45477272 6.17828061 10 9 C11.58245275 10.75149165 11.58245275 10.75149165 13 12 C13.33 11.34 13.66 10.68 14 10 C14 10.99 14 11.98 14 13 C12.35 13.33 10.7 13.66 9 14 C9 13.01 9 12.02 9 11 C7.329375 11.061875 7.329375 11.061875 5.625 11.125 C2 11 2 11 0 9 C-0.1953125 6.8359375 -0.1953125 6.8359375 -0.125 4.375 C-0.10695312 3.55773437 -0.08890625 2.74046875 -0.0703125 1.8984375 C-0.04710937 1.27195312 -0.02390625 0.64546875 0 0 Z " fill="#553017" transform="translate(142,299)"/>
<path d="M0 0 C0.78375 0.04125 1.5675 0.0825 2.375 0.125 C2.26044319 2.04231918 2.13293742 3.9588675 2 5.875 C1.93039062 6.94234375 1.86078125 8.0096875 1.7890625 9.109375 C1.4021777 11.92706432 0.81813834 13.7080366 -0.625 16.125 C-1.615 16.125 -2.605 16.125 -3.625 16.125 C-3.84627098 13.83454632 -4.0516504 11.54255236 -4.25 9.25 C-4.36601562 7.97382813 -4.48203125 6.69765625 -4.6015625 5.3828125 C-4.61316406 3.77019531 -4.61316406 3.77019531 -4.625 2.125 C-2.625 0.125 -2.625 0.125 0 0 Z " fill="#A24B6E" transform="translate(376.625,276.875)"/>
<path d="M0 0 C0 0.66 0 1.32 0 2 C-5.46572763 4.60084141 -10.88607465 6.6897665 -16.7109375 8.33984375 C-18.6000836 8.88466575 -20.46169554 9.52400406 -22.3125 10.1875 C-25.02717529 11.00821578 -27.1824969 11.16573548 -30 11 C-28.68 10.34 -27.36 9.68 -26 9 C-26.33 8.34 -26.66 7.68 -27 7 C-17.58997722 4.70387244 -17.58997722 4.70387244 -13 5 C-13 4.34 -13 3.68 -13 3 C-11.58603098 2.49242138 -10.16868271 1.99425075 -8.75 1.5 C-7.96109375 1.2215625 -7.1721875 0.943125 -6.359375 0.65625 C-4 0 -4 0 0 0 Z " fill="#5B5755" transform="translate(295,343)"/>
<path d="M0 0 C0.33 0 0.66 0 1 0 C1.22786458 2.01822917 1.45572917 4.03645833 1.68359375 6.0546875 C1.91292961 8.07404316 1.91292961 8.07404316 3 10 C2.72057545 11.67654729 2.39171753 13.34608154 2 15 C1.34 15 0.68 15 0 15 C0.33 18.3 0.66 21.6 1 25 C0.01 24.67 -0.98 24.34 -2 24 C-3.14077657 20.57767028 -3.09815117 17.91326783 -3.0625 14.3125 C-3.05347656 13.13300781 -3.04445313 11.95351562 -3.03515625 10.73828125 C-3.02355469 9.83464844 -3.01195312 8.93101562 -3 8 C-2.01 8 -1.02 8 0 8 C0 5.36 0 2.72 0 0 Z " fill="#AF9798" transform="translate(370,240)"/>
<path d="M0 0 C0 0.33 0 0.66 0 1 C-1.7015625 1.05607422 -1.7015625 1.05607422 -3.4375 1.11328125 C-13.50625184 1.3638 -13.50625184 1.3638 -23.04296875 4.234375 C-29.27218954 6.67135559 -36.37626706 7.12775746 -43 7 C-30.55312105 -1.2979193 -14.29630025 -0.65422382 0 0 Z " fill="#4C2C17" transform="translate(301,167)"/>
<path d="M0 0 C-0.28187936 1.79323253 -0.5758281 3.58457126 -0.875 5.375 C-1.03742188 6.37273437 -1.19984375 7.37046875 -1.3671875 8.3984375 C-2 11 -2 11 -4 13 C-4.33 10.03 -4.66 7.06 -5 4 C-6.98 4.99 -6.98 4.99 -9 6 C-10.98821313 6.39764263 -12.99124558 6.72428861 -15 7 C-16.27875 7.185625 -17.5575 7.37125 -18.875 7.5625 C-19.90625 7.706875 -20.9375 7.85125 -22 8 C-19.63423284 5.63423284 -17.77553737 5.08114955 -14.625 4 C-10.6953082 2.65924902 -10.6953082 2.65924902 -6.9609375 0.875 C-4.53764738 -0.20630874 -2.624182 -0.14578789 0 0 Z " fill="#412419" transform="translate(304,338)"/>
<path d="M0 0 C1.98 0 3.96 0 6 0 C6.66666667 1.33333333 7.33333333 2.66666667 8 4 C8.391875 4.66 8.78375 5.32 9.1875 6 C10.17413108 8.42863035 9.86626039 9.57447091 9 12 C8.34 12 7.68 12 7 12 C6.525625 11.360625 6.05125 10.72125 5.5625 10.0625 C4.0908635 7.71627037 4.0908635 7.71627037 1 7 C1 6.34 1 5.68 1 5 C0.01 4.67 -0.98 4.34 -2 4 C-1.34 2.68 -0.68 1.36 0 0 Z " fill="#7C563D" transform="translate(144,295)"/>
<path d="M0 0 C4.95 0 9.9 0 15 0 C15 0.66 15 1.32 15 2 C17.475 2.495 17.475 2.495 20 3 C20 4.32 20 5.64 20 7 C17.48915849 6.58152642 15.36692685 6.19694082 13.11230469 4.98681641 C10.75128073 3.88380452 9.04653862 3.69107589 6.453125 3.5859375 C5.18662109 3.52792969 5.18662109 3.52792969 3.89453125 3.46875 C2.58548828 3.42234375 2.58548828 3.42234375 1.25 3.375 C0.36183594 3.33632813 -0.52632812 3.29765625 -1.44140625 3.2578125 C-3.6273998 3.16379127 -5.81339062 3.07813857 -8 3 C-8 2.67 -8 2.34 -8 2 C-5.36 1.67 -2.72 1.34 0 1 C0 0.67 0 0.34 0 0 Z " fill="#5F3D29" transform="translate(206,292)"/>
<path d="M0 0 C1.20970459 0.00523682 2.41940918 0.01047363 3.66577148 0.01586914 C4.97094727 0.0190918 6.27612305 0.02231445 7.62084961 0.02563477 C9.00952213 0.03399138 10.39819401 0.04245634 11.78686523 0.05102539 C13.17944179 0.05603873 14.57202005 0.06060193 15.96459961 0.06469727 C19.38456394 0.07653105 22.80444367 0.09301659 26.22436523 0.11352539 C25.89436523 0.77352539 25.56436523 1.43352539 25.22436523 2.11352539 C24.31895996 2.14325439 24.31895996 2.14325439 23.39526367 2.17358398 C7.20670827 2.67535211 7.20670827 2.67535211 -8.77563477 5.11352539 C-7.97125977 4.47415039 -7.16688477 3.83477539 -6.33813477 3.17602539 C-2.52023197 0.10307924 -2.52023197 0.10307924 0 0 Z " fill="#744C35" transform="translate(190.775634765625,289.886474609375)"/>
<path d="M0 0 C0.78375 0.04125 1.5675 0.0825 2.375 0.125 C3.035 2.435 3.695 4.745 4.375 7.125 C1.375 9.125 1.375 9.125 -1.125 8.875 C-3.625 8.125 -3.625 8.125 -6.625 6.125 C-3.85227273 0.18344156 -3.85227273 0.18344156 0 0 Z " fill="#633C24" transform="translate(380.625,259.875)"/>
<path d="M0 0 C0.79019531 -0.00257812 1.58039063 -0.00515625 2.39453125 -0.0078125 C3.21050781 -0.00007813 4.02648437 0.00765625 4.8671875 0.015625 C5.69089844 0.00789063 6.51460937 0.00015625 7.36328125 -0.0078125 C8.15089844 -0.00523438 8.93851563 -0.00265625 9.75 0 C10.46816895 0.00225586 11.18633789 0.00451172 11.92626953 0.00683594 C13.7421875 0.265625 13.7421875 0.265625 15.7421875 2.265625 C10.7921875 1.935625 5.8421875 1.605625 0.7421875 1.265625 C0.0821875 2.585625 -0.5778125 3.905625 -1.2578125 5.265625 C-3.859375 5.875 -3.859375 5.875 -6.8828125 6.015625 C-7.88570312 6.07234375 -8.88859375 6.1290625 -9.921875 6.1875 C-10.69273437 6.21328125 -11.46359375 6.2390625 -12.2578125 6.265625 C-12.5878125 5.605625 -12.9178125 4.945625 -13.2578125 4.265625 C-12.5153125 3.976875 -11.7728125 3.688125 -11.0078125 3.390625 C-8.35526152 2.36781671 -8.35526152 2.36781671 -6.35205078 1.21191406 C-4.05260867 0.17290292 -2.50918954 0.007857 0 0 Z " fill="#685E4D" transform="translate(165.2578125,96.734375)"/>
<path d="M0 0 C1.58867866 1.58867866 1.20794039 3.24689516 1.25 5.4375 C1.27578125 6.24058594 1.3015625 7.04367187 1.328125 7.87109375 C1.21984375 8.57363281 1.1115625 9.27617187 1 10 C0.01 10.66 -0.98 11.32 -2 12 C-1.67 8.7 -1.34 5.4 -1 2 C-1.95261719 2.144375 -2.90523438 2.28875 -3.88671875 2.4375 C-5.14097656 2.623125 -6.39523437 2.80875 -7.6875 3 C-9.54955078 3.2784375 -9.54955078 3.2784375 -11.44921875 3.5625 C-14.35886371 3.92100411 -17.07700022 4.08942256 -20 4 C-18 1 -18 1 -16.15234375 0.48828125 C-15.42144531 0.43027344 -14.69054687 0.37226563 -13.9375 0.3125 C-13.14214844 0.24933594 -12.34679687 0.18617188 -11.52734375 0.12109375 C-3.48302959 -0.26433707 -3.48302959 -0.26433707 0 0 Z " fill="#441F1C" transform="translate(287,356)"/>
<path d="M0 0 C0.66 0.33 1.32 0.66 2 1 C2.125 8.75 2.125 8.75 1 11 C2.65 10.67 4.3 10.34 6 10 C5 12 5 12 3.07421875 12.8515625 C2.28660156 13.10679687 1.49898438 13.36203125 0.6875 13.625 C-0.09238281 13.88539063 -0.87226563 14.14578125 -1.67578125 14.4140625 C-4 15 -4 15 -8 15 C-6.52307692 10.32307692 -6.52307692 10.32307692 -3.875 8.6875 C-3.25625 8.460625 -2.6375 8.23375 -2 8 C-1.67 8.99 -1.34 9.98 -1 11 C-0.12132271 7.26562152 0.08912219 3.83225427 0 0 Z " fill="#A38975" transform="translate(317,270)"/>
<path d="M0 0 C0.66 0.33 1.32 0.66 2 1 C1.525625 1.7425 1.05125 2.485 0.5625 3.25 C-1.08140244 5.7835255 -1.08140244 5.7835255 -1.359375 8.05859375 C-2 10 -2 10 -3.70703125 11.08203125 C-4.40183594 11.32308594 -5.09664063 11.56414062 -5.8125 11.8125 C-6.49957031 12.06644531 -7.18664062 12.32039063 -7.89453125 12.58203125 C-10.26868457 13.05333812 -11.72314894 12.75212833 -14 12 C-13.05125 11.79375 -12.1025 11.5875 -11.125 11.375 C-7.72990818 10.3148689 -7.72990818 10.3148689 -6.8125 7.0625 C-6.544375 6.051875 -6.27625 5.04125 -6 4 C-4.02036826 1.50394259 -3.10753611 1.03584537 0 0 Z " fill="#6F472F" transform="translate(305,328)"/>
<path d="M0 0 C0.33 0.66 0.66 1.32 1 2 C0.401875 2.886875 -0.19625 3.77375 -0.8125 4.6875 C-2.9517936 7.80691666 -2.9517936 7.80691666 -4.3125 10.5 C-6.6668938 13.98799081 -9.72843513 16.39171129 -13 19 C-13 17.35 -13 15.7 -13 14 C-12.38125 13.7525 -11.7625 13.505 -11.125 13.25 C-8.8926498 12.19627726 -8.8926498 12.19627726 -8.09375 10.1875 C-6.82962919 7.65925838 -5.26315732 5.84795258 -3.375 3.75 C-2.74335938 3.04359375 -2.11171875 2.3371875 -1.4609375 1.609375 C-0.97882813 1.07828125 -0.49671875 0.5471875 0 0 Z " fill="#6A422A" transform="translate(298,362)"/>
<path d="M0 0 C0.33 0 0.66 0 1 0 C1.33 2.97 1.66 5.94 2 9 C8.07027358 11.1583195 13.59370576 11.20852314 20 11 C16.69327441 13.76535901 14.56359051 14.4618139 10.16796875 14.296875 C6.44897991 13.78760806 3.41589104 12.55812574 0 11 C-1.49297212 8.01405576 -1.11755228 5.29146376 -1 2 C-0.67 1.34 -0.34 0.68 0 0 Z " fill="#774F36" transform="translate(239,313)"/>
<path d="M0 0 C0 0.66 0 1.32 0 2 C-0.66 2 -1.32 2 -2 2 C-3.32594359 7.96674616 -3.0884587 13.92583615 -3 20 C-3.66 20 -4.32 20 -5 20 C-7.1192537 14.2655488 -7.55924516 8.98582704 -6 3 C-3.94456596 0.29083192 -3.514767 0 0 0 Z " fill="#412D14" transform="translate(290,265)"/>
<path d="M0 0 C0.59375 1.83203125 0.59375 1.83203125 1 4 C-0.5 6.6875 -0.5 6.6875 -3 9 C-8.52835107 10.43737128 -14.31518513 10.10294433 -20 10 C-20.33 9.34 -20.66 8.68 -21 8 C-19.98679688 8.00902344 -18.97359375 8.01804687 -17.9296875 8.02734375 C-10.4178274 8.13079331 -10.4178274 8.13079331 -3.66796875 5.375 C-2.23300775 3.6432709 -1.04396273 1.98924241 0 0 Z " fill="#623B23" transform="translate(265,325)"/>
<path d="M0 0 C0.78375 0.495 1.5675 0.99 2.375 1.5 C4.78552327 3.16537965 4.78552327 3.16537965 7 3 C7.66 2.34 8.32 1.68 9 1 C9.12375 2.175625 9.12375 2.175625 9.25 3.375 C9.72806339 6.14749104 9.72806339 6.14749104 12.0625 7.3125 C12.701875 7.539375 13.34125 7.76625 14 8 C10.71678929 9.64160535 7.38446793 9.11031952 4 8 C0 3.3 0 3.3 0 0 Z " fill="#66432A" transform="translate(155,340)"/>
<path d="M0 0 C2.12508244 3.18762365 2.5020163 5.26512223 3 9 C3.61875 8.79375 4.2375 8.5875 4.875 8.375 C5.926875 8.189375 5.926875 8.189375 7 8 C7.66 8.66 8.32 9.32 9 10 C8.01 10 7.02 10 6 10 C5.67 11.98 5.34 13.96 5 16 C4.34 16 3.68 16 3 16 C-1.1479151 11.37347931 -0.27510986 5.81806416 0 0 Z " fill="#7A523A" transform="translate(365,259)"/>
<path d="M0 0 C0 1.98 0 3.96 0 6 C-1.9914056 6.38133299 -3.99279077 6.71325582 -6 7 C-7 6 -7 6 -7.0625 2.9375 C-7.041875 1.968125 -7.02125 0.99875 -7 0 C-4.3333581 -1.33332095 -2.83319697 -0.67102033 0 0 Z " fill="#E5E4E2" transform="translate(296,267)"/>
<path d="M0 0 C0.66 0 1.32 0 2 0 C2.58679706 5.72127135 0.88209795 10.14739418 -2 15 C-4.75 17.5625 -4.75 17.5625 -7 19 C-6.67 17.02 -6.34 15.04 -6 13 C-5.01 12.67 -4.02 12.34 -3 12 C-2.80083984 10.82630859 -2.80083984 10.82630859 -2.59765625 9.62890625 C-2.42105469 8.61699219 -2.24445313 7.60507812 -2.0625 6.5625 C-1.88847656 5.55316406 -1.71445312 4.54382813 -1.53515625 3.50390625 C-1 1 -1 1 0 0 Z " fill="#7E4C43" transform="translate(379,280)"/>
<path d="M0 0 C-2.97 0.99 -5.94 1.98 -9 3 C-9 3.99 -9 4.98 -9 6 C-10.41377782 6.36552803 -11.83120576 6.71695495 -13.25 7.0625 C-14.03890625 7.25972656 -14.8278125 7.45695312 -15.640625 7.66015625 C-18.10394822 8.01497267 -19.65604132 7.76877544 -22 7 C-19.56343315 5.85214624 -17.12580719 4.70664598 -14.6875 3.5625 C-13.99720703 3.23701172 -13.30691406 2.91152344 -12.59570312 2.57617188 C-4.62867647 -1.15716912 -4.62867647 -1.15716912 0 0 Z " fill="#5C3525" transform="translate(291,342)"/>
<path d="M0 0 C1.98 0.495 1.98 0.495 4 1 C4 1.66 4 2.32 4 3 C6.64 3 9.28 3 12 3 C12 3.33 12 3.66 12 4 C9.03 4 6.06 4 3 4 C3 4.66 3 5.32 3 6 C3.66 6 4.32 6 5 6 C5.66 7.65 6.32 9.3 7 11 C5.68 10.67 4.36 10.34 3 10 C3 9.01 3 8.02 3 7 C1.68 6.67 0.36 6.34 -1 6 C-1 2 -1 2 0 0 Z " fill="#613A24" transform="translate(221,349)"/>
<path d="M0 0 C0 0.33 0 0.66 0 1 C-7.92 1.33 -15.84 1.66 -24 2 C-23 0 -23 0 -21.30078125 -0.6171875 C-14.31822575 -1.77897093 -6.93715407 -1.26130074 0 0 Z " fill="#29190E" transform="translate(213,293)"/>
<path d="M0 0 C0.6875 1.5625 0.6875 1.5625 1 4 C0.34189485 5.67816813 -0.32858063 7.35407645 -1.09765625 8.984375 C-2.69316183 12.5483615 -3.81199248 16.2843169 -5 20 C-5.33 20 -5.66 20 -6 20 C-6.5847137 13.42197086 -4.71495253 7.97487728 -2 2 C-1.34 1.34 -0.68 0.68 0 0 Z " fill="#1E130D" transform="translate(275,262)"/>
<path d="M0 0 C1.32 0.33 2.64 0.66 4 1 C4 1.66 4 2.32 4 3 C4.66 3.33 5.32 3.66 6 4 C4.35 4.33 2.7 4.66 1 5 C0.67 8.3 0.34 11.6 0 15 C-1.65 15 -3.3 15 -5 15 C-5 14.34 -5 13.68 -5 13 C-4.34 13 -3.68 13 -3 13 C-2.86722656 12.31292969 -2.73445313 11.62585938 -2.59765625 10.91796875 C-2.42105469 10.01691406 -2.24445313 9.11585938 -2.0625 8.1875 C-1.88847656 7.29417969 -1.71445312 6.40085937 -1.53515625 5.48046875 C-1 3 -1 3 0 0 Z " fill="#774D3B" transform="translate(304,338)"/>
<path d="M0 0 C0.66 0 1.32 0 2 0 C2 0.66 2 1.32 2 2 C2.99 2.33 3.98 2.66 5 3 C5.8125 4.8125 5.8125 4.8125 6 7 C5.0625 9.25 5.0625 9.25 4 11 C3.67 9.68 3.34 8.36 3 7 C0.525 8.485 0.525 8.485 -2 10 C-1.34 6.7 -0.68 3.4 0 0 Z " fill="#755738" transform="translate(312,271)"/>
<path d="M0 0 C-6.53600151 4.17191586 -13.13049802 6.50770981 -21 6 C-5.43877551 -2.09183673 -5.43877551 -2.09183673 0 0 Z " fill="#8E6752" transform="translate(269,333)"/>
<path d="M0 0 C0.99 1.32 1.98 2.64 3 4 C2.01 4.495 2.01 4.495 1 5 C1 9.62 1 14.24 1 19 C2.32 19.66 3.64 20.32 5 21 C2.625 21.125 2.625 21.125 0 21 C-2 19 -2 19 -2.01171875 16.171875 C-1.90472656 15.04265625 -1.79773438 13.9134375 -1.6875 12.75 C-1.58824219 11.63109375 -1.48898437 10.5121875 -1.38671875 9.359375 C-1.02477567 6.21522297 -0.55234172 3.11577383 0 0 Z " fill="#6F472F" transform="translate(371,290)"/>
<path d="M0 0 C0.33 0 0.66 0 1 0 C2.10228696 4.40914783 2.07654536 8.48382401 2 13 C0.68 12.67 -0.64 12.34 -2 12 C-1.85962479 10.18706911 -1.71255111 8.3746557 -1.5625 6.5625 C-1.48128906 5.55316406 -1.40007812 4.54382813 -1.31640625 3.50390625 C-1 1 -1 1 0 0 Z " fill="#2A1B0F" transform="translate(368,235)"/>
<path d="M0 0 C5.08813236 0.32951714 10.00001322 0.02563831 15 -1 C12.16574969 2.10417891 10.14555839 2.9312665 5.875 3.1875 C1.40547979 2.97123289 -2.676285 2.09808635 -7 1 C-3.375 -1.125 -3.375 -1.125 0 0 Z " fill="#977766" transform="translate(263,410)"/>
<path d="M0 0 C6.93 0.495 6.93 0.495 14 1 C14 1.33 14 1.66 14 2 C9.10845663 3.20516286 4.19724878 3.33461434 -0.8125 3.5625 C-1.69615234 3.60568359 -2.57980469 3.64886719 -3.49023438 3.69335938 C-5.65999623 3.79891536 -7.8299791 3.89991071 -10 4 C-6.3558226 1.5705484 -4.28758728 1.83820425 0 2 C0 1.34 0 0.68 0 0 Z " fill="#462813" transform="translate(187,184)"/>
<path d="M0 0 C-0.33 0.66 -0.66 1.32 -1 2 C-4.46712111 3.15570704 -7.5414956 3.32835293 -11.1875 3.5625 C-13.09595703 3.68818359 -13.09595703 3.68818359 -15.04296875 3.81640625 C-16.01878906 3.87699219 -16.99460938 3.93757813 -18 4 C-18 3.34 -18 2.68 -18 2 C-11.93184478 0.77100654 -6.20104812 -0.27560214 0 0 Z " fill="#100706" transform="translate(272,354)"/>
<path d="M0 0 C8.25 0 16.5 0 25 0 C24.67 0.99 24.34 1.98 24 3 C22.35 3.33 20.7 3.66 19 4 C19 3.67 19 3.34 19 3 C13.06 2.67 7.12 2.34 1 2 C0.67 1.34 0.34 0.68 0 0 Z " fill="#1E1716" transform="translate(229,356)"/>
<path d="M0 0 C0.33 1.32 0.66 2.64 1 4 C1.66 4 2.32 4 3 4 C4.90608098 7.21182149 5.22266247 9.53882603 5.125 13.25 C5.10695312 14.14203125 5.08890625 15.0340625 5.0703125 15.953125 C5.03550781 16.96632813 5.03550781 16.96632813 5 18 C4.01 17.67 3.02 17.34 2 17 C1.67 16.01 1.34 15.02 1 14 C1.66 13.67 2.32 13.34 3 13 C2.50675463 8.65944077 1.6024973 6.43056463 -1 3 C-0.67 2.01 -0.34 1.02 0 0 Z " fill="#644027" transform="translate(150,293)"/>
<path d="M0 0 C0 0.66 0 1.32 0 2 C-1.66248338 3.00693931 -3.33005424 4.00548558 -5 5 C-6.64760066 6.51663081 -8.25248462 8.08091699 -9.8125 9.6875 C-10.99779297 10.89986328 -10.99779297 10.89986328 -12.20703125 12.13671875 C-12.79871094 12.75160156 -13.39039063 13.36648437 -14 14 C-14.33 13.34 -14.66 12.68 -15 12 C-12.01377035 7.71540964 -5.65866548 0 0 0 Z " fill="#6E452D" transform="translate(172,191)"/>
<path d="M0 0 C0.99 0 1.98 0 3 0 C2.67 4.62 2.34 9.24 2 14 C1.34 14 0.68 14 0 14 C-0.19393875 11.85473901 -0.37998676 9.70876323 -0.5625 7.5625 C-0.71912109 5.77005859 -0.71912109 5.77005859 -0.87890625 3.94140625 C-0.91886719 2.97074219 -0.95882813 2.00007813 -1 1 C-0.67 0.67 -0.34 0.34 0 0 Z " fill="#C55D88" transform="translate(373,278)"/>
<path d="M0 0 C-2.58193977 0.67250524 -5.16532071 1.33817901 -7.75 2 C-8.84441406 2.28617188 -8.84441406 2.28617188 -9.9609375 2.578125 C-13.44571646 3.46515964 -16.38123722 4 -20 4 C-20 3.34 -20 2.68 -20 2 C-13.51969293 -0.06818311 -6.69196816 -2.00910105 0 0 Z " fill="#5E3B25" transform="translate(271,173)"/>
<path d="M0 0 C0 0.66 0 1.32 0 2 C-1.4317616 2.69937202 -2.87067032 3.38412718 -4.3125 4.0625 C-5.51326172 4.63677734 -5.51326172 4.63677734 -6.73828125 5.22265625 C-9 6 -9 6 -12 5 C-12.33 4.34 -12.66 3.68 -13 3 C-11.58603098 2.49242138 -10.16868271 1.99425075 -8.75 1.5 C-7.96109375 1.2215625 -7.1721875 0.943125 -6.359375 0.65625 C-4 0 -4 0 0 0 Z " fill="#4F4845" transform="translate(295,343)"/>
<path d="M0 0 C2.4375 1.4375 2.4375 1.4375 3.75 4.5625 C4.0903125 5.985625 4.0903125 5.985625 4.4375 7.4375 C2.95469804 6.65266341 1.4763502 5.85940666 0 5.0625 C-0.82371094 4.62164062 -1.64742188 4.18078125 -2.49609375 3.7265625 C-4.5625 2.4375 -4.5625 2.4375 -5.5625 0.4375 C-2.5625 -0.5625 -2.5625 -0.5625 0 0 Z " fill="#4B371F" transform="translate(309.5625,260.5625)"/>
<path d="M0 0 C0.66 0 1.32 0 2 0 C1.67 1.98 1.34 3.96 1 6 C-3.0527516 6.98248524 -6.83861737 7.08159574 -11 7 C-11 6.67 -11 6.34 -11 6 C-9.9275 5.7525 -8.855 5.505 -7.75 5.25 C-3.95411278 3.98470426 -2.60376183 2.8930687 0 0 Z " fill="#BA6862" transform="translate(278,403)"/>
<path d="M0 0 C4.30764815 1.56641751 8.06171464 3.68336156 12 6 C12 6.99 12 7.98 12 9 C7.25 7.125 7.25 7.125 5 6 C5 5.34 5 4.68 5 4 C2.525 3.01 2.525 3.01 0 2 C0 1.34 0 0.68 0 0 Z " fill="#663E28" transform="translate(235,373)"/>
<path d="M0 0 C0.99 0.33 1.98 0.66 3 1 C2.34 1.66 1.68 2.32 1 3 C-1.67905902 7.01858853 -1.32182663 9.25305716 -1 14 C-3.07358419 10.88962372 -3.29487123 10.00438748 -3.3125 6.4375 C-3.32925781 5.65246094 -3.34601563 4.86742187 -3.36328125 4.05859375 C-3.24339844 3.37925781 -3.12351563 2.69992187 -3 2 C-2.01 1.34 -1.02 0.68 0 0 Z " fill="#C56862" transform="translate(251,367)"/>
<path d="M0 0 C0.66 0.33 1.32 0.66 2 1 C0.68 2.65 -0.64 4.3 -2 6 C-1.01 6.33 -0.02 6.66 1 7 C0.01 7.33 -0.98 7.66 -2 8 C-2 8.66 -2 9.32 -2 10 C-3.32 10.33 -4.64 10.66 -6 11 C-4.88059018 6.14922412 -3.8665284 3.222107 0 0 Z " fill="#66422D" transform="translate(176,273)"/>
<path d="M0 0 C0.99 0.33 1.98 0.66 3 1 C2.50628906 1.40992188 2.01257813 1.81984375 1.50390625 2.2421875 C0.86324219 2.78101563 0.22257812 3.31984375 -0.4375 3.875 C-1.07558594 4.40867187 -1.71367187 4.94234375 -2.37109375 5.4921875 C-4.10805004 6.9222757 -4.10805004 6.9222757 -5 9 C-4.34 9.33 -3.68 9.66 -3 10 C-6 12 -6 12 -9 12 C-7.55575365 8.76138697 -5.74227753 6.38030837 -3.375 3.75 C-2.74335938 3.04359375 -2.11171875 2.3371875 -1.4609375 1.609375 C-0.97882813 1.07828125 -0.49671875 0.5471875 0 0 Z " fill="#523625" transform="translate(282,252)"/>
<path d="M0 0 C0.66 0.66 1.32 1.32 2 2 C2.99 2 3.98 2 5 2 C4.00233891 4.49415272 3.31383315 5.78740335 1.0625 7.3125 C-1 8 -1 8 -4 7 C-3.525625 6.401875 -3.05125 5.80375 -2.5625 5.1875 C-0.83534256 2.99617076 -0.83534256 2.99617076 0 0 Z " fill="#5A3921" transform="translate(283,400)"/>
<path d="M0 0 C0.52078125 0.23589844 1.0415625 0.47179687 1.578125 0.71484375 C-3.95769371 3.95688573 -9.35474437 6.61892589 -15.421875 8.71484375 C-15.421875 8.05484375 -15.421875 7.39484375 -15.421875 6.71484375 C-13.34614419 5.51199974 -11.26304405 4.32778674 -9.171875 3.15234375 C-8.29208984 2.63897461 -8.29208984 2.63897461 -7.39453125 2.11523438 C-2.96392641 -0.34897843 -2.96392641 -0.34897843 0 0 Z " fill="#654939" transform="translate(193.421875,264.28515625)"/>
<path d="M0 0 C3.96 0 7.92 0 12 0 C12 0.66 12 1.32 12 2 C12.66 2.33 13.32 2.66 14 3 C9.05 2.67 4.1 2.34 -1 2 C-0.67 1.34 -0.34 0.68 0 0 Z " fill="#A5A2A0" transform="translate(295,257)"/>
<path d="M0 0 C0 0.66 0 1.32 0 2 C-1.57914015 2.53341184 -3.16354387 3.05125763 -4.75 3.5625 C-5.63171875 3.85253906 -6.5134375 4.14257812 -7.421875 4.44140625 C-10.07834316 5.01697435 -11.47031106 4.89248371 -14 4 C-13.67 3.34 -13.34 2.68 -13 2 C-11.00390625 1.62109375 -11.00390625 1.62109375 -8.5625 1.4375 C-5.54701765 1.20032723 -2.88759624 0 0 0 Z " fill="#472D1E" transform="translate(198,271)"/>
<path d="M0 0 C3.93846154 4.30769231 3.93846154 4.30769231 4.25 7.8125 C4.1675 8.534375 4.085 9.25625 4 10 C3.34 10 2.68 10 2 10 C0.1402289 7.40759181 -1.57205423 4.85589153 -3 2 C-2.34 2 -1.68 2 -1 2 C-0.67 1.34 -0.34 0.68 0 0 Z " fill="#554136" transform="translate(327,260)"/>
<path d="M0 0 C0.56203125 0.22300781 1.1240625 0.44601563 1.703125 0.67578125 C-8.67618534 7.67578125 -8.67618534 7.67578125 -11.296875 7.67578125 C-11.296875 7.01578125 -11.296875 6.35578125 -11.296875 5.67578125 C-9.46875 4.1328125 -9.46875 4.1328125 -7.046875 2.48828125 C-6.25796875 1.93785156 -5.4690625 1.38742188 -4.65625 0.8203125 C-2.296875 -0.32421875 -2.296875 -0.32421875 0 0 Z " fill="#594033" transform="translate(254.296875,125.32421875)"/>
<path d="M0 0 C2.39763185 2.39763185 2.34280586 3.33273498 2.625 6.625 C2.69976562 7.44226563 2.77453125 8.25953125 2.8515625 9.1015625 C2.90054688 9.72804688 2.94953125 10.35453125 3 11 C2.01 11 1.02 11 0 11 C-0.84098656 6.98195309 -1.05404945 3.98196457 0 0 Z " fill="#391E0C" transform="translate(151,286)"/>
<path d="M0 0 C2.97 0.33 5.94 0.66 9 1 C2.83018868 5.11320755 2.83018868 5.11320755 -0.75 4.625 C-1.4925 4.41875 -2.235 4.2125 -3 4 C-2.01 3.67 -1.02 3.34 0 3 C0 2.01 0 1.02 0 0 Z " fill="#694E30" transform="translate(292,286)"/>
<path d="M0 0 C0.33 0 0.66 0 1 0 C2.33257403 9.41002278 2.33257403 9.41002278 1 14 C0.01 14 -0.98 14 -2 14 C-2 12.02 -2 10.04 -2 8 C-1.34 8 -0.68 8 0 8 C0 5.36 0 2.72 0 0 Z " fill="#BBA4A6" transform="translate(370,240)"/>
<path d="M0 0 C0 0.66 0 1.32 0 2 C-5.41176471 6 -5.41176471 6 -8 6 C-8 5.01 -8 4.02 -8 3 C-5.0936485 0.19744677 -4.21174952 0 0 0 Z " fill="#583C21" transform="translate(309,390)"/>
<path d="M0 0 C1.01126953 0.24556641 1.01126953 0.24556641 2.04296875 0.49609375 C5.51367906 1.0875358 8.79322124 1.09539046 12.3125 1.0625 C13.56675781 1.05347656 14.82101563 1.04445313 16.11328125 1.03515625 C17.06589844 1.02355469 18.01851563 1.01195312 19 1 C17 3 17 3 13.5234375 3.1953125 C12.14049032 3.18201493 10.75761346 3.15816232 9.375 3.125 C8.66859375 3.11597656 7.9621875 3.10695313 7.234375 3.09765625 C5.48943902 3.07407603 3.74467705 3.03820461 2 3 C2 2.34 2 1.68 2 1 C1.34 0.67 0.68 0.34 0 0 Z " fill="#734B33" transform="translate(240,333)"/>
<path d="M0 0 C-0.309375 0.5775 -0.61875 1.155 -0.9375 1.75 C-1.92583364 3.84294184 -2.5168613 5.74535275 -3 8 C-3.99 8 -4.98 8 -6 8 C-6.36458333 3.50347222 -6.36458333 3.50347222 -4.6875 1.1875 C-3 0 -3 0 0 0 Z " fill="#653F26" transform="translate(306,330)"/>
<path d="M0 0 C0 0.99 0 1.98 0 3 C-0.99 3.495 -0.99 3.495 -2 4 C-2 3.34 -2 2.68 -2 2 C-5.3 2.33 -8.6 2.66 -12 3 C-8.40198016 -0.59801984 -4.84291279 -0.09137571 0 0 Z " fill="#654A3B" transform="translate(215,257)"/>
<path d="M0 0 C1.65 0 3.3 0 5 0 C4.34 3.63 3.68 7.26 3 11 C2.67 11 2.34 11 2 11 C1.92652344 10.04287109 1.92652344 10.04287109 1.8515625 9.06640625 C1.77679688 8.24011719 1.70203125 7.41382813 1.625 6.5625 C1.55539062 5.73878906 1.48578125 4.91507812 1.4140625 4.06640625 C1.27742188 3.38449219 1.14078125 2.70257813 1 2 C0.34 1.67 -0.32 1.34 -1 1 C-0.67 0.67 -0.34 0.34 0 0 Z " fill="#512B1C" transform="translate(299,338)"/>
<path d="M0 0 C-1.90401138 1.90401138 -3.33425686 2.93520439 -6.046875 3.19921875 C-8.03233273 3.1886578 -10.0169914 3.09915043 -12 3 C-12 2.34 -12 1.68 -12 1 C-7.93631321 0.22596442 -4.13574827 -0.0984702 0 0 Z " fill="#7C543D" transform="translate(259,324)"/>
<path d="M0 0 C2.34545328 2.34545328 2.95508888 3.95985838 3.09765625 7.26171875 C3.08605469 8.06222656 3.07445312 8.86273438 3.0625 9.6875 C3.05347656 10.49574219 3.04445312 11.30398438 3.03515625 12.13671875 C3.02355469 12.75160156 3.01195312 13.36648438 3 14 C2.67 14 2.34 14 2 14 C0.02905192 9.07262981 -0.1799928 5.21979128 0 0 Z " fill="#603A22" transform="translate(153,314)"/>
<path d="M0 0 C0.99 0 1.98 0 3 0 C2.34 3.3 1.68 6.6 1 10 C0.34 9.67 -0.32 9.34 -1 9 C-0.67 6.03 -0.34 3.06 0 0 Z " fill="#5D371F" transform="translate(371,269)"/>
<path d="M0 0 C0.66 0.33 1.32 0.66 2 1 C2 1.66 2 2.32 2 3 C2.99 3.33 3.98 3.66 5 4 C4.360625 4.226875 3.72125 4.45375 3.0625 4.6875 C0.72806339 5.85250896 0.72806339 5.85250896 0.25 8.625 C0.1675 9.40875 0.085 10.1925 0 11 C-0.66 10.34 -1.32 9.68 -2 9 C-2 7.68 -2 6.36 -2 5 C-1.34 5 -0.68 5 0 5 C0 3.35 0 1.7 0 0 Z " fill="#936E63" transform="translate(372,250)"/>
<path d="M0 0 C0.99 0.33 1.98 0.66 3 1 C1.95125002 3.62187494 1.35068687 4.79371361 -1.125 6.25 C-1.74375 6.4975 -2.3625 6.745 -3 7 C-2.625 4.0625 -2.625 4.0625 -2 1 C-1.34 0.67 -0.68 0.34 0 0 Z " fill="#3B2313" transform="translate(166,189)"/>
<path d="M0 0 C0.99 0 1.98 0 3 0 C4.4783226 2.95664519 4.06032783 5.74229737 4 9 C2.68 9.33 1.36 9.66 0 10 C0.185625 8.906875 0.37125 7.81375 0.5625 6.6875 C1.2578068 3.06375867 1.2578068 3.06375867 0 0 Z " fill="#A28C82" transform="translate(378,270)"/>
<path d="M0 0 C0.33 0 0.66 0 1 0 C1.13277344 0.67546875 1.26554687 1.3509375 1.40234375 2.046875 C1.57894531 2.93890625 1.75554687 3.8309375 1.9375 4.75 C2.11152344 5.63171875 2.28554688 6.5134375 2.46484375 7.421875 C2.92368488 9.63235053 3.43336074 11.81512068 4 14 C3.01 14 2.02 14 1 14 C0.04738513 9.23692563 -0.08333357 4.8333472 0 0 Z " fill="#8F6E5B" transform="translate(366,254)"/>
<path d="M0 0 C5.02254631 -0.2954439 7.89542386 0.01485372 12 3 C11.01 4.485 11.01 4.485 10 6 C9.649375 5.54625 9.29875 5.0925 8.9375 4.625 C6.22903794 2.35338666 3.39204672 1.83201146 0 1 C0 0.67 0 0.34 0 0 Z " fill="#604418" transform="translate(298,262)"/>
<path d="M0 0 C0.66 0.33 1.32 0.66 2 1 C0.515 2.485 0.515 2.485 -1 4 C-0.67 4.66 -0.34 5.32 0 6 C-1.65 6.66 -3.3 7.32 -5 8 C-5.33 6.68 -5.66 5.36 -6 4 C-4.02 2.68 -2.04 1.36 0 0 Z " fill="#5A4E3F" transform="translate(143,106)"/>
<path d="M0 0 C3.3 0.33 6.6 0.66 10 1 C6.3558226 3.4294516 4.28758728 3.16179575 0 3 C0 2.01 0 1.02 0 0 Z " fill="#584C3D" transform="translate(324,73)"/>
<path d="M0 0 C0.99 0.495 0.99 0.495 2 1 C2 1.66 2 2.32 2 3 C2.66 3 3.32 3 4 3 C4 4.98 4 6.96 4 9 C3.34 9 2.68 9 2 9 C0.50178941 5.62902617 0 3.79557881 0 0 Z " fill="#AE5954" transform="translate(252,394)"/>
<path d="M0 0 C1.98 0 3.96 0 6 0 C5.0409375 0.7734375 5.0409375 0.7734375 4.0625 1.5625 C1.44208319 4.65935623 1.30610183 7.02067623 1 11 C0.67 11 0.34 11 0 11 C0 7.37 0 3.74 0 0 Z " fill="#A5524D" transform="translate(246,364)"/>
<path d="M0 0 C0.33 0.99 0.66 1.98 1 3 C3.00016466 4.20882096 3.00016466 4.20882096 5 5 C1.64338305 6.67830848 -1.36135594 5.6353188 -5 5 C-5.33 4.34 -5.66 3.68 -6 3 C-4.02 3 -2.04 3 0 3 C0 2.01 0 1.02 0 0 Z " fill="#69593C" transform="translate(164,343)"/>
<path d="M0 0 C0.66 0.66 1.32 1.32 2 2 C1.67 2.99 1.34 3.98 1 5 C0.34 5 -0.32 5 -1 5 C-1 8.63 -1 12.26 -1 16 C-1.33 16 -1.66 16 -2 16 C-2.05423638 14.08364783 -2.09289963 12.16685075 -2.125 10.25 C-2.14820313 9.18265625 -2.17140625 8.1153125 -2.1953125 7.015625 C-2.00487687 4.07529894 -1.52670104 2.47638122 0 0 Z " fill="#7B5139" transform="translate(235,311)"/>
<path d="M0 0 C0.66 0 1.32 0 2 0 C1.67 2.31 1.34 4.62 1 7 C-0.98 7.33 -2.96 7.66 -5 8 C-4.21718695 6.66144944 -3.42348123 5.32926356 -2.625 4 C-2.18414062 3.2575 -1.74328125 2.515 -1.2890625 1.75 C-0.86367188 1.1725 -0.43828125 0.595 0 0 Z " fill="#7D593F" transform="translate(381,299)"/>
<path d="M0 0 C0.99 0.33 1.98 0.66 3 1 C3 1.66 3 2.32 3 3 C3.928125 3.12375 3.928125 3.12375 4.875 3.25 C7 4 7 4 8.25 6.0625 C8.4975 6.701875 8.745 7.34125 9 8 C8.1646875 7.2575 8.1646875 7.2575 7.3125 6.5 C4.61837017 4.75245633 3.14624993 4.73781251 0 5 C0 3.35 0 1.7 0 0 Z " fill="#623B23" transform="translate(142,299)"/>
<path d="M0 0 C0.66 0.33 1.32 0.66 2 1 C1.175 1.763125 0.35 2.52625 -0.5 3.3125 C-3.34055197 5.75434142 -3.34055197 5.75434142 -3 9 C-3.99 9 -4.98 9 -6 9 C-5.52797514 4.75177626 -3.03344482 2.80010291 0 0 Z " fill="#624A3D" transform="translate(275,222)"/>
<path d="M0 0 C0.33 0.99 0.66 1.98 1 3 C0.67 3.66 0.34 4.32 0 5 C-1.65 5 -3.3 5 -5 5 C-5 4.01 -5 3.02 -5 2 C-2 0 -2 0 0 0 Z " fill="#5F4723" transform="translate(295,262)"/>
<path d="M0 0 C0.66 0 1.32 0 2 0 C2 2.97 2 5.94 2 9 C1.34 9 0.68 9 0 9 C-0.59732819 6.23735711 -1 3.83967231 -1 1 C-0.67 0.67 -0.34 0.34 0 0 Z " fill="#8E6650" transform="translate(243,315)"/>
<path d="M0 0 C2 3 2 3 1.75 5.5625 C1 8 1 8 -1 10 C-1.125 3.375 -1.125 3.375 0 0 Z " fill="#402B1E" transform="translate(270,272)"/>
<path d="M0 0 C0.66 0.33 1.32 0.66 2 1 C2 1.66 2 2.32 2 3 C-1 5 -1 5 -3.6875 4.625 C-4.450625 4.41875 -5.21375 4.2125 -6 4 C-5.38125 3.71125 -4.7625 3.4225 -4.125 3.125 C-1.86674235 2.06279958 -1.86674235 2.06279958 0 0 Z " fill="#734D35" transform="translate(383,264)"/>
<path d="M0 0 C0.99 0.33 1.98 0.66 3 1 C3.33 2.65 3.66 4.3 4 6 C3.34 5.67 2.68 5.34 2 5 C1.34 5.66 0.68 6.32 0 7 C0 4.69 0 2.38 0 0 Z " fill="#5E3820" transform="translate(235,318)"/>
<path d="M0 0 C2.97 0.495 2.97 0.495 6 1 C6.33 1.99 6.66 2.98 7 4 C2.25 3.125 2.25 3.125 0 2 C0 1.34 0 0.68 0 0 Z " fill="#5A351D" transform="translate(219,295)"/>
<path d="M0 0 C1.5 1.3125 1.5 1.3125 3 3 C3 3.99 3 4.98 3 6 C1.02 6 -0.96 6 -3 6 C-2.67 5.34 -2.34 4.68 -2 4 C-1.01 4 -0.02 4 1 4 C0.67 2.68 0.34 1.36 0 0 Z " fill="#9EB492" transform="translate(147,289)"/>
</svg>
